G75*
%MOIN*%
%OFA0B0*%
%FSLAX25Y25*%
%IPPOS*%
%LPD*%
%AMOC8*
5,1,8,0,0,1.08239X$1,22.5*
%
%ADD10C,0.00000*%
%ADD11C,0.00800*%
%ADD12C,0.00500*%
%ADD13C,0.00600*%
%ADD14R,0.02000X0.10000*%
%ADD15R,0.07500X0.03000*%
%ADD16C,0.00200*%
%ADD17C,0.00700*%
%ADD18R,0.02500X0.03000*%
%ADD19R,0.11000X0.05000*%
%ADD20C,0.01000*%
%ADD21C,0.02400*%
%ADD22R,0.03400X0.02400*%
%ADD23R,0.02400X0.03400*%
%ADD24R,0.02000X0.06000*%
%ADD25R,0.01000X0.02500*%
%ADD26R,0.00500X0.01000*%
%ADD27R,0.42000X0.03000*%
%ADD28R,0.07500X0.02000*%
%ADD29R,0.03000X0.02000*%
%ADD30R,0.06000X0.02000*%
%ADD31R,0.02500X0.01000*%
%ADD32R,0.01000X0.00500*%
D10*
X0001000Y0001000D02*
X0001000Y0229701D01*
X0395921Y0229701D01*
X0395921Y0001000D01*
X0001000Y0001000D01*
X0378500Y0066000D02*
X0378502Y0066161D01*
X0378508Y0066321D01*
X0378518Y0066482D01*
X0378532Y0066642D01*
X0378550Y0066802D01*
X0378571Y0066961D01*
X0378597Y0067120D01*
X0378627Y0067278D01*
X0378660Y0067435D01*
X0378698Y0067592D01*
X0378739Y0067747D01*
X0378784Y0067901D01*
X0378833Y0068054D01*
X0378886Y0068206D01*
X0378942Y0068357D01*
X0379003Y0068506D01*
X0379066Y0068654D01*
X0379134Y0068800D01*
X0379205Y0068944D01*
X0379279Y0069086D01*
X0379357Y0069227D01*
X0379439Y0069365D01*
X0379524Y0069502D01*
X0379612Y0069636D01*
X0379704Y0069768D01*
X0379799Y0069898D01*
X0379897Y0070026D01*
X0379998Y0070151D01*
X0380102Y0070273D01*
X0380209Y0070393D01*
X0380319Y0070510D01*
X0380432Y0070625D01*
X0380548Y0070736D01*
X0380667Y0070845D01*
X0380788Y0070950D01*
X0380912Y0071053D01*
X0381038Y0071153D01*
X0381166Y0071249D01*
X0381297Y0071342D01*
X0381431Y0071432D01*
X0381566Y0071519D01*
X0381704Y0071602D01*
X0381843Y0071682D01*
X0381985Y0071758D01*
X0382128Y0071831D01*
X0382273Y0071900D01*
X0382420Y0071966D01*
X0382568Y0072028D01*
X0382718Y0072086D01*
X0382869Y0072141D01*
X0383022Y0072192D01*
X0383176Y0072239D01*
X0383331Y0072282D01*
X0383487Y0072321D01*
X0383643Y0072357D01*
X0383801Y0072388D01*
X0383959Y0072416D01*
X0384118Y0072440D01*
X0384278Y0072460D01*
X0384438Y0072476D01*
X0384598Y0072488D01*
X0384759Y0072496D01*
X0384920Y0072500D01*
X0385080Y0072500D01*
X0385241Y0072496D01*
X0385402Y0072488D01*
X0385562Y0072476D01*
X0385722Y0072460D01*
X0385882Y0072440D01*
X0386041Y0072416D01*
X0386199Y0072388D01*
X0386357Y0072357D01*
X0386513Y0072321D01*
X0386669Y0072282D01*
X0386824Y0072239D01*
X0386978Y0072192D01*
X0387131Y0072141D01*
X0387282Y0072086D01*
X0387432Y0072028D01*
X0387580Y0071966D01*
X0387727Y0071900D01*
X0387872Y0071831D01*
X0388015Y0071758D01*
X0388157Y0071682D01*
X0388296Y0071602D01*
X0388434Y0071519D01*
X0388569Y0071432D01*
X0388703Y0071342D01*
X0388834Y0071249D01*
X0388962Y0071153D01*
X0389088Y0071053D01*
X0389212Y0070950D01*
X0389333Y0070845D01*
X0389452Y0070736D01*
X0389568Y0070625D01*
X0389681Y0070510D01*
X0389791Y0070393D01*
X0389898Y0070273D01*
X0390002Y0070151D01*
X0390103Y0070026D01*
X0390201Y0069898D01*
X0390296Y0069768D01*
X0390388Y0069636D01*
X0390476Y0069502D01*
X0390561Y0069365D01*
X0390643Y0069227D01*
X0390721Y0069086D01*
X0390795Y0068944D01*
X0390866Y0068800D01*
X0390934Y0068654D01*
X0390997Y0068506D01*
X0391058Y0068357D01*
X0391114Y0068206D01*
X0391167Y0068054D01*
X0391216Y0067901D01*
X0391261Y0067747D01*
X0391302Y0067592D01*
X0391340Y0067435D01*
X0391373Y0067278D01*
X0391403Y0067120D01*
X0391429Y0066961D01*
X0391450Y0066802D01*
X0391468Y0066642D01*
X0391482Y0066482D01*
X0391492Y0066321D01*
X0391498Y0066161D01*
X0391500Y0066000D01*
X0391498Y0065839D01*
X0391492Y0065679D01*
X0391482Y0065518D01*
X0391468Y0065358D01*
X0391450Y0065198D01*
X0391429Y0065039D01*
X0391403Y0064880D01*
X0391373Y0064722D01*
X0391340Y0064565D01*
X0391302Y0064408D01*
X0391261Y0064253D01*
X0391216Y0064099D01*
X0391167Y0063946D01*
X0391114Y0063794D01*
X0391058Y0063643D01*
X0390997Y0063494D01*
X0390934Y0063346D01*
X0390866Y0063200D01*
X0390795Y0063056D01*
X0390721Y0062914D01*
X0390643Y0062773D01*
X0390561Y0062635D01*
X0390476Y0062498D01*
X0390388Y0062364D01*
X0390296Y0062232D01*
X0390201Y0062102D01*
X0390103Y0061974D01*
X0390002Y0061849D01*
X0389898Y0061727D01*
X0389791Y0061607D01*
X0389681Y0061490D01*
X0389568Y0061375D01*
X0389452Y0061264D01*
X0389333Y0061155D01*
X0389212Y0061050D01*
X0389088Y0060947D01*
X0388962Y0060847D01*
X0388834Y0060751D01*
X0388703Y0060658D01*
X0388569Y0060568D01*
X0388434Y0060481D01*
X0388296Y0060398D01*
X0388157Y0060318D01*
X0388015Y0060242D01*
X0387872Y0060169D01*
X0387727Y0060100D01*
X0387580Y0060034D01*
X0387432Y0059972D01*
X0387282Y0059914D01*
X0387131Y0059859D01*
X0386978Y0059808D01*
X0386824Y0059761D01*
X0386669Y0059718D01*
X0386513Y0059679D01*
X0386357Y0059643D01*
X0386199Y0059612D01*
X0386041Y0059584D01*
X0385882Y0059560D01*
X0385722Y0059540D01*
X0385562Y0059524D01*
X0385402Y0059512D01*
X0385241Y0059504D01*
X0385080Y0059500D01*
X0384920Y0059500D01*
X0384759Y0059504D01*
X0384598Y0059512D01*
X0384438Y0059524D01*
X0384278Y0059540D01*
X0384118Y0059560D01*
X0383959Y0059584D01*
X0383801Y0059612D01*
X0383643Y0059643D01*
X0383487Y0059679D01*
X0383331Y0059718D01*
X0383176Y0059761D01*
X0383022Y0059808D01*
X0382869Y0059859D01*
X0382718Y0059914D01*
X0382568Y0059972D01*
X0382420Y0060034D01*
X0382273Y0060100D01*
X0382128Y0060169D01*
X0381985Y0060242D01*
X0381843Y0060318D01*
X0381704Y0060398D01*
X0381566Y0060481D01*
X0381431Y0060568D01*
X0381297Y0060658D01*
X0381166Y0060751D01*
X0381038Y0060847D01*
X0380912Y0060947D01*
X0380788Y0061050D01*
X0380667Y0061155D01*
X0380548Y0061264D01*
X0380432Y0061375D01*
X0380319Y0061490D01*
X0380209Y0061607D01*
X0380102Y0061727D01*
X0379998Y0061849D01*
X0379897Y0061974D01*
X0379799Y0062102D01*
X0379704Y0062232D01*
X0379612Y0062364D01*
X0379524Y0062498D01*
X0379439Y0062635D01*
X0379357Y0062773D01*
X0379279Y0062914D01*
X0379205Y0063056D01*
X0379134Y0063200D01*
X0379066Y0063346D01*
X0379003Y0063494D01*
X0378942Y0063643D01*
X0378886Y0063794D01*
X0378833Y0063946D01*
X0378784Y0064099D01*
X0378739Y0064253D01*
X0378698Y0064408D01*
X0378660Y0064565D01*
X0378627Y0064722D01*
X0378597Y0064880D01*
X0378571Y0065039D01*
X0378550Y0065198D01*
X0378532Y0065358D01*
X0378518Y0065518D01*
X0378508Y0065679D01*
X0378502Y0065839D01*
X0378500Y0066000D01*
D11*
X0316000Y0101000D02*
X0316000Y0121000D01*
X0276000Y0121000D01*
X0276000Y0101000D01*
X0316000Y0101000D01*
X0267921Y0081500D02*
X0263921Y0081500D01*
X0265921Y0083500D02*
X0265921Y0079500D01*
X0251157Y0076000D02*
X0251160Y0076242D01*
X0251169Y0076483D01*
X0251184Y0076724D01*
X0251204Y0076965D01*
X0251231Y0077205D01*
X0251264Y0077444D01*
X0251302Y0077683D01*
X0251346Y0077920D01*
X0251396Y0078157D01*
X0251452Y0078392D01*
X0251514Y0078625D01*
X0251581Y0078857D01*
X0251654Y0079088D01*
X0251732Y0079316D01*
X0251817Y0079542D01*
X0251906Y0079767D01*
X0252001Y0079989D01*
X0252102Y0080208D01*
X0252208Y0080426D01*
X0252319Y0080640D01*
X0252436Y0080852D01*
X0252557Y0081060D01*
X0252684Y0081266D01*
X0252816Y0081468D01*
X0252953Y0081668D01*
X0253094Y0081863D01*
X0253240Y0082056D01*
X0253391Y0082244D01*
X0253547Y0082429D01*
X0253707Y0082610D01*
X0253871Y0082787D01*
X0254040Y0082960D01*
X0254213Y0083129D01*
X0254390Y0083293D01*
X0254571Y0083453D01*
X0254756Y0083609D01*
X0254944Y0083760D01*
X0255137Y0083906D01*
X0255332Y0084047D01*
X0255532Y0084184D01*
X0255734Y0084316D01*
X0255940Y0084443D01*
X0256148Y0084564D01*
X0256360Y0084681D01*
X0256574Y0084792D01*
X0256792Y0084898D01*
X0257011Y0084999D01*
X0257233Y0085094D01*
X0257458Y0085183D01*
X0257684Y0085268D01*
X0257912Y0085346D01*
X0258143Y0085419D01*
X0258375Y0085486D01*
X0258608Y0085548D01*
X0258843Y0085604D01*
X0259080Y0085654D01*
X0259317Y0085698D01*
X0259556Y0085736D01*
X0259795Y0085769D01*
X0260035Y0085796D01*
X0260276Y0085816D01*
X0260517Y0085831D01*
X0260758Y0085840D01*
X0261000Y0085843D01*
X0261242Y0085840D01*
X0261483Y0085831D01*
X0261724Y0085816D01*
X0261965Y0085796D01*
X0262205Y0085769D01*
X0262444Y0085736D01*
X0262683Y0085698D01*
X0262920Y0085654D01*
X0263157Y0085604D01*
X0263392Y0085548D01*
X0263625Y0085486D01*
X0263857Y0085419D01*
X0264088Y0085346D01*
X0264316Y0085268D01*
X0264542Y0085183D01*
X0264767Y0085094D01*
X0264989Y0084999D01*
X0265208Y0084898D01*
X0265426Y0084792D01*
X0265640Y0084681D01*
X0265852Y0084564D01*
X0266060Y0084443D01*
X0266266Y0084316D01*
X0266468Y0084184D01*
X0266668Y0084047D01*
X0266863Y0083906D01*
X0267056Y0083760D01*
X0267244Y0083609D01*
X0267429Y0083453D01*
X0267610Y0083293D01*
X0267787Y0083129D01*
X0267960Y0082960D01*
X0268129Y0082787D01*
X0268293Y0082610D01*
X0268453Y0082429D01*
X0268609Y0082244D01*
X0268760Y0082056D01*
X0268906Y0081863D01*
X0269047Y0081668D01*
X0269184Y0081468D01*
X0269316Y0081266D01*
X0269443Y0081060D01*
X0269564Y0080852D01*
X0269681Y0080640D01*
X0269792Y0080426D01*
X0269898Y0080208D01*
X0269999Y0079989D01*
X0270094Y0079767D01*
X0270183Y0079542D01*
X0270268Y0079316D01*
X0270346Y0079088D01*
X0270419Y0078857D01*
X0270486Y0078625D01*
X0270548Y0078392D01*
X0270604Y0078157D01*
X0270654Y0077920D01*
X0270698Y0077683D01*
X0270736Y0077444D01*
X0270769Y0077205D01*
X0270796Y0076965D01*
X0270816Y0076724D01*
X0270831Y0076483D01*
X0270840Y0076242D01*
X0270843Y0076000D01*
X0270840Y0075758D01*
X0270831Y0075517D01*
X0270816Y0075276D01*
X0270796Y0075035D01*
X0270769Y0074795D01*
X0270736Y0074556D01*
X0270698Y0074317D01*
X0270654Y0074080D01*
X0270604Y0073843D01*
X0270548Y0073608D01*
X0270486Y0073375D01*
X0270419Y0073143D01*
X0270346Y0072912D01*
X0270268Y0072684D01*
X0270183Y0072458D01*
X0270094Y0072233D01*
X0269999Y0072011D01*
X0269898Y0071792D01*
X0269792Y0071574D01*
X0269681Y0071360D01*
X0269564Y0071148D01*
X0269443Y0070940D01*
X0269316Y0070734D01*
X0269184Y0070532D01*
X0269047Y0070332D01*
X0268906Y0070137D01*
X0268760Y0069944D01*
X0268609Y0069756D01*
X0268453Y0069571D01*
X0268293Y0069390D01*
X0268129Y0069213D01*
X0267960Y0069040D01*
X0267787Y0068871D01*
X0267610Y0068707D01*
X0267429Y0068547D01*
X0267244Y0068391D01*
X0267056Y0068240D01*
X0266863Y0068094D01*
X0266668Y0067953D01*
X0266468Y0067816D01*
X0266266Y0067684D01*
X0266060Y0067557D01*
X0265852Y0067436D01*
X0265640Y0067319D01*
X0265426Y0067208D01*
X0265208Y0067102D01*
X0264989Y0067001D01*
X0264767Y0066906D01*
X0264542Y0066817D01*
X0264316Y0066732D01*
X0264088Y0066654D01*
X0263857Y0066581D01*
X0263625Y0066514D01*
X0263392Y0066452D01*
X0263157Y0066396D01*
X0262920Y0066346D01*
X0262683Y0066302D01*
X0262444Y0066264D01*
X0262205Y0066231D01*
X0261965Y0066204D01*
X0261724Y0066184D01*
X0261483Y0066169D01*
X0261242Y0066160D01*
X0261000Y0066157D01*
X0260758Y0066160D01*
X0260517Y0066169D01*
X0260276Y0066184D01*
X0260035Y0066204D01*
X0259795Y0066231D01*
X0259556Y0066264D01*
X0259317Y0066302D01*
X0259080Y0066346D01*
X0258843Y0066396D01*
X0258608Y0066452D01*
X0258375Y0066514D01*
X0258143Y0066581D01*
X0257912Y0066654D01*
X0257684Y0066732D01*
X0257458Y0066817D01*
X0257233Y0066906D01*
X0257011Y0067001D01*
X0256792Y0067102D01*
X0256574Y0067208D01*
X0256360Y0067319D01*
X0256148Y0067436D01*
X0255940Y0067557D01*
X0255734Y0067684D01*
X0255532Y0067816D01*
X0255332Y0067953D01*
X0255137Y0068094D01*
X0254944Y0068240D01*
X0254756Y0068391D01*
X0254571Y0068547D01*
X0254390Y0068707D01*
X0254213Y0068871D01*
X0254040Y0069040D01*
X0253871Y0069213D01*
X0253707Y0069390D01*
X0253547Y0069571D01*
X0253391Y0069756D01*
X0253240Y0069944D01*
X0253094Y0070137D01*
X0252953Y0070332D01*
X0252816Y0070532D01*
X0252684Y0070734D01*
X0252557Y0070940D01*
X0252436Y0071148D01*
X0252319Y0071360D01*
X0252208Y0071574D01*
X0252102Y0071792D01*
X0252001Y0072011D01*
X0251906Y0072233D01*
X0251817Y0072458D01*
X0251732Y0072684D01*
X0251654Y0072912D01*
X0251581Y0073143D01*
X0251514Y0073375D01*
X0251452Y0073608D01*
X0251396Y0073843D01*
X0251346Y0074080D01*
X0251302Y0074317D01*
X0251264Y0074556D01*
X0251231Y0074795D01*
X0251204Y0075035D01*
X0251184Y0075276D01*
X0251169Y0075517D01*
X0251160Y0075758D01*
X0251157Y0076000D01*
X0254079Y0081500D02*
X0258079Y0081500D01*
X0291500Y0052921D02*
X0291500Y0048921D01*
X0276157Y0046000D02*
X0276160Y0046242D01*
X0276169Y0046483D01*
X0276184Y0046724D01*
X0276204Y0046965D01*
X0276231Y0047205D01*
X0276264Y0047444D01*
X0276302Y0047683D01*
X0276346Y0047920D01*
X0276396Y0048157D01*
X0276452Y0048392D01*
X0276514Y0048625D01*
X0276581Y0048857D01*
X0276654Y0049088D01*
X0276732Y0049316D01*
X0276817Y0049542D01*
X0276906Y0049767D01*
X0277001Y0049989D01*
X0277102Y0050208D01*
X0277208Y0050426D01*
X0277319Y0050640D01*
X0277436Y0050852D01*
X0277557Y0051060D01*
X0277684Y0051266D01*
X0277816Y0051468D01*
X0277953Y0051668D01*
X0278094Y0051863D01*
X0278240Y0052056D01*
X0278391Y0052244D01*
X0278547Y0052429D01*
X0278707Y0052610D01*
X0278871Y0052787D01*
X0279040Y0052960D01*
X0279213Y0053129D01*
X0279390Y0053293D01*
X0279571Y0053453D01*
X0279756Y0053609D01*
X0279944Y0053760D01*
X0280137Y0053906D01*
X0280332Y0054047D01*
X0280532Y0054184D01*
X0280734Y0054316D01*
X0280940Y0054443D01*
X0281148Y0054564D01*
X0281360Y0054681D01*
X0281574Y0054792D01*
X0281792Y0054898D01*
X0282011Y0054999D01*
X0282233Y0055094D01*
X0282458Y0055183D01*
X0282684Y0055268D01*
X0282912Y0055346D01*
X0283143Y0055419D01*
X0283375Y0055486D01*
X0283608Y0055548D01*
X0283843Y0055604D01*
X0284080Y0055654D01*
X0284317Y0055698D01*
X0284556Y0055736D01*
X0284795Y0055769D01*
X0285035Y0055796D01*
X0285276Y0055816D01*
X0285517Y0055831D01*
X0285758Y0055840D01*
X0286000Y0055843D01*
X0286242Y0055840D01*
X0286483Y0055831D01*
X0286724Y0055816D01*
X0286965Y0055796D01*
X0287205Y0055769D01*
X0287444Y0055736D01*
X0287683Y0055698D01*
X0287920Y0055654D01*
X0288157Y0055604D01*
X0288392Y0055548D01*
X0288625Y0055486D01*
X0288857Y0055419D01*
X0289088Y0055346D01*
X0289316Y0055268D01*
X0289542Y0055183D01*
X0289767Y0055094D01*
X0289989Y0054999D01*
X0290208Y0054898D01*
X0290426Y0054792D01*
X0290640Y0054681D01*
X0290852Y0054564D01*
X0291060Y0054443D01*
X0291266Y0054316D01*
X0291468Y0054184D01*
X0291668Y0054047D01*
X0291863Y0053906D01*
X0292056Y0053760D01*
X0292244Y0053609D01*
X0292429Y0053453D01*
X0292610Y0053293D01*
X0292787Y0053129D01*
X0292960Y0052960D01*
X0293129Y0052787D01*
X0293293Y0052610D01*
X0293453Y0052429D01*
X0293609Y0052244D01*
X0293760Y0052056D01*
X0293906Y0051863D01*
X0294047Y0051668D01*
X0294184Y0051468D01*
X0294316Y0051266D01*
X0294443Y0051060D01*
X0294564Y0050852D01*
X0294681Y0050640D01*
X0294792Y0050426D01*
X0294898Y0050208D01*
X0294999Y0049989D01*
X0295094Y0049767D01*
X0295183Y0049542D01*
X0295268Y0049316D01*
X0295346Y0049088D01*
X0295419Y0048857D01*
X0295486Y0048625D01*
X0295548Y0048392D01*
X0295604Y0048157D01*
X0295654Y0047920D01*
X0295698Y0047683D01*
X0295736Y0047444D01*
X0295769Y0047205D01*
X0295796Y0046965D01*
X0295816Y0046724D01*
X0295831Y0046483D01*
X0295840Y0046242D01*
X0295843Y0046000D01*
X0295840Y0045758D01*
X0295831Y0045517D01*
X0295816Y0045276D01*
X0295796Y0045035D01*
X0295769Y0044795D01*
X0295736Y0044556D01*
X0295698Y0044317D01*
X0295654Y0044080D01*
X0295604Y0043843D01*
X0295548Y0043608D01*
X0295486Y0043375D01*
X0295419Y0043143D01*
X0295346Y0042912D01*
X0295268Y0042684D01*
X0295183Y0042458D01*
X0295094Y0042233D01*
X0294999Y0042011D01*
X0294898Y0041792D01*
X0294792Y0041574D01*
X0294681Y0041360D01*
X0294564Y0041148D01*
X0294443Y0040940D01*
X0294316Y0040734D01*
X0294184Y0040532D01*
X0294047Y0040332D01*
X0293906Y0040137D01*
X0293760Y0039944D01*
X0293609Y0039756D01*
X0293453Y0039571D01*
X0293293Y0039390D01*
X0293129Y0039213D01*
X0292960Y0039040D01*
X0292787Y0038871D01*
X0292610Y0038707D01*
X0292429Y0038547D01*
X0292244Y0038391D01*
X0292056Y0038240D01*
X0291863Y0038094D01*
X0291668Y0037953D01*
X0291468Y0037816D01*
X0291266Y0037684D01*
X0291060Y0037557D01*
X0290852Y0037436D01*
X0290640Y0037319D01*
X0290426Y0037208D01*
X0290208Y0037102D01*
X0289989Y0037001D01*
X0289767Y0036906D01*
X0289542Y0036817D01*
X0289316Y0036732D01*
X0289088Y0036654D01*
X0288857Y0036581D01*
X0288625Y0036514D01*
X0288392Y0036452D01*
X0288157Y0036396D01*
X0287920Y0036346D01*
X0287683Y0036302D01*
X0287444Y0036264D01*
X0287205Y0036231D01*
X0286965Y0036204D01*
X0286724Y0036184D01*
X0286483Y0036169D01*
X0286242Y0036160D01*
X0286000Y0036157D01*
X0285758Y0036160D01*
X0285517Y0036169D01*
X0285276Y0036184D01*
X0285035Y0036204D01*
X0284795Y0036231D01*
X0284556Y0036264D01*
X0284317Y0036302D01*
X0284080Y0036346D01*
X0283843Y0036396D01*
X0283608Y0036452D01*
X0283375Y0036514D01*
X0283143Y0036581D01*
X0282912Y0036654D01*
X0282684Y0036732D01*
X0282458Y0036817D01*
X0282233Y0036906D01*
X0282011Y0037001D01*
X0281792Y0037102D01*
X0281574Y0037208D01*
X0281360Y0037319D01*
X0281148Y0037436D01*
X0280940Y0037557D01*
X0280734Y0037684D01*
X0280532Y0037816D01*
X0280332Y0037953D01*
X0280137Y0038094D01*
X0279944Y0038240D01*
X0279756Y0038391D01*
X0279571Y0038547D01*
X0279390Y0038707D01*
X0279213Y0038871D01*
X0279040Y0039040D01*
X0278871Y0039213D01*
X0278707Y0039390D01*
X0278547Y0039571D01*
X0278391Y0039756D01*
X0278240Y0039944D01*
X0278094Y0040137D01*
X0277953Y0040332D01*
X0277816Y0040532D01*
X0277684Y0040734D01*
X0277557Y0040940D01*
X0277436Y0041148D01*
X0277319Y0041360D01*
X0277208Y0041574D01*
X0277102Y0041792D01*
X0277001Y0042011D01*
X0276906Y0042233D01*
X0276817Y0042458D01*
X0276732Y0042684D01*
X0276654Y0042912D01*
X0276581Y0043143D01*
X0276514Y0043375D01*
X0276452Y0043608D01*
X0276396Y0043843D01*
X0276346Y0044080D01*
X0276302Y0044317D01*
X0276264Y0044556D01*
X0276231Y0044795D01*
X0276204Y0045035D01*
X0276184Y0045276D01*
X0276169Y0045517D01*
X0276160Y0045758D01*
X0276157Y0046000D01*
X0289500Y0041079D02*
X0293500Y0041079D01*
X0291500Y0039079D02*
X0291500Y0043079D01*
X0203000Y0056953D02*
X0203000Y0065000D01*
X0199500Y0073000D02*
X0182500Y0073000D01*
X0179000Y0065000D02*
X0179000Y0057071D01*
X0182500Y0049000D02*
X0199500Y0049000D01*
X0184000Y0061000D02*
X0184002Y0061172D01*
X0184008Y0061343D01*
X0184019Y0061515D01*
X0184034Y0061686D01*
X0184053Y0061857D01*
X0184076Y0062027D01*
X0184103Y0062197D01*
X0184135Y0062366D01*
X0184170Y0062534D01*
X0184210Y0062701D01*
X0184254Y0062867D01*
X0184301Y0063032D01*
X0184353Y0063196D01*
X0184409Y0063358D01*
X0184469Y0063519D01*
X0184533Y0063679D01*
X0184601Y0063837D01*
X0184672Y0063993D01*
X0184747Y0064147D01*
X0184827Y0064300D01*
X0184909Y0064450D01*
X0184996Y0064599D01*
X0185086Y0064745D01*
X0185180Y0064889D01*
X0185277Y0065031D01*
X0185378Y0065170D01*
X0185482Y0065307D01*
X0185589Y0065441D01*
X0185700Y0065572D01*
X0185813Y0065701D01*
X0185930Y0065827D01*
X0186050Y0065950D01*
X0186173Y0066070D01*
X0186299Y0066187D01*
X0186428Y0066300D01*
X0186559Y0066411D01*
X0186693Y0066518D01*
X0186830Y0066622D01*
X0186969Y0066723D01*
X0187111Y0066820D01*
X0187255Y0066914D01*
X0187401Y0067004D01*
X0187550Y0067091D01*
X0187700Y0067173D01*
X0187853Y0067253D01*
X0188007Y0067328D01*
X0188163Y0067399D01*
X0188321Y0067467D01*
X0188481Y0067531D01*
X0188642Y0067591D01*
X0188804Y0067647D01*
X0188968Y0067699D01*
X0189133Y0067746D01*
X0189299Y0067790D01*
X0189466Y0067830D01*
X0189634Y0067865D01*
X0189803Y0067897D01*
X0189973Y0067924D01*
X0190143Y0067947D01*
X0190314Y0067966D01*
X0190485Y0067981D01*
X0190657Y0067992D01*
X0190828Y0067998D01*
X0191000Y0068000D01*
X0191172Y0067998D01*
X0191343Y0067992D01*
X0191515Y0067981D01*
X0191686Y0067966D01*
X0191857Y0067947D01*
X0192027Y0067924D01*
X0192197Y0067897D01*
X0192366Y0067865D01*
X0192534Y0067830D01*
X0192701Y0067790D01*
X0192867Y0067746D01*
X0193032Y0067699D01*
X0193196Y0067647D01*
X0193358Y0067591D01*
X0193519Y0067531D01*
X0193679Y0067467D01*
X0193837Y0067399D01*
X0193993Y0067328D01*
X0194147Y0067253D01*
X0194300Y0067173D01*
X0194450Y0067091D01*
X0194599Y0067004D01*
X0194745Y0066914D01*
X0194889Y0066820D01*
X0195031Y0066723D01*
X0195170Y0066622D01*
X0195307Y0066518D01*
X0195441Y0066411D01*
X0195572Y0066300D01*
X0195701Y0066187D01*
X0195827Y0066070D01*
X0195950Y0065950D01*
X0196070Y0065827D01*
X0196187Y0065701D01*
X0196300Y0065572D01*
X0196411Y0065441D01*
X0196518Y0065307D01*
X0196622Y0065170D01*
X0196723Y0065031D01*
X0196820Y0064889D01*
X0196914Y0064745D01*
X0197004Y0064599D01*
X0197091Y0064450D01*
X0197173Y0064300D01*
X0197253Y0064147D01*
X0197328Y0063993D01*
X0197399Y0063837D01*
X0197467Y0063679D01*
X0197531Y0063519D01*
X0197591Y0063358D01*
X0197647Y0063196D01*
X0197699Y0063032D01*
X0197746Y0062867D01*
X0197790Y0062701D01*
X0197830Y0062534D01*
X0197865Y0062366D01*
X0197897Y0062197D01*
X0197924Y0062027D01*
X0197947Y0061857D01*
X0197966Y0061686D01*
X0197981Y0061515D01*
X0197992Y0061343D01*
X0197998Y0061172D01*
X0198000Y0061000D01*
X0197998Y0060828D01*
X0197992Y0060657D01*
X0197981Y0060485D01*
X0197966Y0060314D01*
X0197947Y0060143D01*
X0197924Y0059973D01*
X0197897Y0059803D01*
X0197865Y0059634D01*
X0197830Y0059466D01*
X0197790Y0059299D01*
X0197746Y0059133D01*
X0197699Y0058968D01*
X0197647Y0058804D01*
X0197591Y0058642D01*
X0197531Y0058481D01*
X0197467Y0058321D01*
X0197399Y0058163D01*
X0197328Y0058007D01*
X0197253Y0057853D01*
X0197173Y0057700D01*
X0197091Y0057550D01*
X0197004Y0057401D01*
X0196914Y0057255D01*
X0196820Y0057111D01*
X0196723Y0056969D01*
X0196622Y0056830D01*
X0196518Y0056693D01*
X0196411Y0056559D01*
X0196300Y0056428D01*
X0196187Y0056299D01*
X0196070Y0056173D01*
X0195950Y0056050D01*
X0195827Y0055930D01*
X0195701Y0055813D01*
X0195572Y0055700D01*
X0195441Y0055589D01*
X0195307Y0055482D01*
X0195170Y0055378D01*
X0195031Y0055277D01*
X0194889Y0055180D01*
X0194745Y0055086D01*
X0194599Y0054996D01*
X0194450Y0054909D01*
X0194300Y0054827D01*
X0194147Y0054747D01*
X0193993Y0054672D01*
X0193837Y0054601D01*
X0193679Y0054533D01*
X0193519Y0054469D01*
X0193358Y0054409D01*
X0193196Y0054353D01*
X0193032Y0054301D01*
X0192867Y0054254D01*
X0192701Y0054210D01*
X0192534Y0054170D01*
X0192366Y0054135D01*
X0192197Y0054103D01*
X0192027Y0054076D01*
X0191857Y0054053D01*
X0191686Y0054034D01*
X0191515Y0054019D01*
X0191343Y0054008D01*
X0191172Y0054002D01*
X0191000Y0054000D01*
X0190828Y0054002D01*
X0190657Y0054008D01*
X0190485Y0054019D01*
X0190314Y0054034D01*
X0190143Y0054053D01*
X0189973Y0054076D01*
X0189803Y0054103D01*
X0189634Y0054135D01*
X0189466Y0054170D01*
X0189299Y0054210D01*
X0189133Y0054254D01*
X0188968Y0054301D01*
X0188804Y0054353D01*
X0188642Y0054409D01*
X0188481Y0054469D01*
X0188321Y0054533D01*
X0188163Y0054601D01*
X0188007Y0054672D01*
X0187853Y0054747D01*
X0187700Y0054827D01*
X0187550Y0054909D01*
X0187401Y0054996D01*
X0187255Y0055086D01*
X0187111Y0055180D01*
X0186969Y0055277D01*
X0186830Y0055378D01*
X0186693Y0055482D01*
X0186559Y0055589D01*
X0186428Y0055700D01*
X0186299Y0055813D01*
X0186173Y0055930D01*
X0186050Y0056050D01*
X0185930Y0056173D01*
X0185813Y0056299D01*
X0185700Y0056428D01*
X0185589Y0056559D01*
X0185482Y0056693D01*
X0185378Y0056830D01*
X0185277Y0056969D01*
X0185180Y0057111D01*
X0185086Y0057255D01*
X0184996Y0057401D01*
X0184909Y0057550D01*
X0184827Y0057700D01*
X0184747Y0057853D01*
X0184672Y0058007D01*
X0184601Y0058163D01*
X0184533Y0058321D01*
X0184469Y0058481D01*
X0184409Y0058642D01*
X0184353Y0058804D01*
X0184301Y0058968D01*
X0184254Y0059133D01*
X0184210Y0059299D01*
X0184170Y0059466D01*
X0184135Y0059634D01*
X0184103Y0059803D01*
X0184076Y0059973D01*
X0184053Y0060143D01*
X0184034Y0060314D01*
X0184019Y0060485D01*
X0184008Y0060657D01*
X0184002Y0060828D01*
X0184000Y0061000D01*
X0171000Y0097220D02*
X0171000Y0109031D01*
X0173500Y0109031D01*
X0171000Y0109031D02*
X0168500Y0109031D01*
X0168500Y0112969D02*
X0171000Y0112969D01*
X0171000Y0124780D01*
X0171000Y0112969D02*
X0173500Y0112969D01*
X0175000Y0147500D02*
X0175000Y0174500D01*
X0174997Y0174719D01*
X0174989Y0174938D01*
X0174976Y0175157D01*
X0174957Y0175375D01*
X0174933Y0175593D01*
X0174904Y0175810D01*
X0174870Y0176027D01*
X0174830Y0176242D01*
X0174785Y0176457D01*
X0174734Y0176670D01*
X0174679Y0176882D01*
X0174618Y0177093D01*
X0174553Y0177302D01*
X0174482Y0177509D01*
X0174406Y0177715D01*
X0174325Y0177919D01*
X0174240Y0178121D01*
X0174149Y0178320D01*
X0174054Y0178517D01*
X0173953Y0178712D01*
X0173848Y0178905D01*
X0173739Y0179095D01*
X0173625Y0179282D01*
X0173506Y0179466D01*
X0173383Y0179647D01*
X0173255Y0179825D01*
X0173123Y0180001D01*
X0172987Y0180172D01*
X0172847Y0180341D01*
X0172703Y0180506D01*
X0172555Y0180667D01*
X0172403Y0180825D01*
X0172247Y0180979D01*
X0172087Y0181129D01*
X0171924Y0181276D01*
X0171757Y0181418D01*
X0171587Y0181556D01*
X0171413Y0181690D01*
X0171237Y0181820D01*
X0171057Y0181945D01*
X0170874Y0182066D01*
X0170688Y0182182D01*
X0170500Y0182294D01*
X0170309Y0182401D01*
X0170115Y0182504D01*
X0169919Y0182602D01*
X0169721Y0182695D01*
X0169520Y0182783D01*
X0169317Y0182866D01*
X0169112Y0182945D01*
X0168906Y0183018D01*
X0168698Y0183086D01*
X0168488Y0183149D01*
X0168276Y0183207D01*
X0168064Y0183260D01*
X0167850Y0183308D01*
X0167635Y0183350D01*
X0167419Y0183387D01*
X0167202Y0183419D01*
X0166984Y0183446D01*
X0166766Y0183467D01*
X0166548Y0183483D01*
X0166329Y0183494D01*
X0166110Y0183499D01*
X0165890Y0183499D01*
X0165671Y0183494D01*
X0165452Y0183483D01*
X0165234Y0183467D01*
X0165016Y0183446D01*
X0164798Y0183419D01*
X0164581Y0183387D01*
X0164365Y0183350D01*
X0164150Y0183308D01*
X0163936Y0183260D01*
X0163724Y0183207D01*
X0163512Y0183149D01*
X0163302Y0183086D01*
X0163094Y0183018D01*
X0162888Y0182945D01*
X0162683Y0182866D01*
X0162480Y0182783D01*
X0162279Y0182695D01*
X0162081Y0182602D01*
X0161885Y0182504D01*
X0161691Y0182401D01*
X0161500Y0182294D01*
X0161312Y0182182D01*
X0161126Y0182066D01*
X0160943Y0181945D01*
X0160763Y0181820D01*
X0160587Y0181690D01*
X0160413Y0181556D01*
X0160243Y0181418D01*
X0160076Y0181276D01*
X0159913Y0181129D01*
X0159753Y0180979D01*
X0159597Y0180825D01*
X0159445Y0180667D01*
X0159297Y0180506D01*
X0159153Y0180341D01*
X0159013Y0180172D01*
X0158877Y0180001D01*
X0158745Y0179825D01*
X0158617Y0179647D01*
X0158494Y0179466D01*
X0158375Y0179282D01*
X0158261Y0179095D01*
X0158152Y0178905D01*
X0158047Y0178712D01*
X0157946Y0178517D01*
X0157851Y0178320D01*
X0157760Y0178121D01*
X0157675Y0177919D01*
X0157594Y0177715D01*
X0157518Y0177509D01*
X0157447Y0177302D01*
X0157382Y0177093D01*
X0157321Y0176882D01*
X0157266Y0176670D01*
X0157215Y0176457D01*
X0157170Y0176242D01*
X0157130Y0176027D01*
X0157096Y0175810D01*
X0157067Y0175593D01*
X0157043Y0175375D01*
X0157024Y0175157D01*
X0157011Y0174938D01*
X0157003Y0174719D01*
X0157000Y0174500D01*
X0157000Y0147500D01*
X0157003Y0147281D01*
X0157011Y0147062D01*
X0157024Y0146843D01*
X0157043Y0146625D01*
X0157067Y0146407D01*
X0157096Y0146190D01*
X0157130Y0145973D01*
X0157170Y0145758D01*
X0157215Y0145543D01*
X0157266Y0145330D01*
X0157321Y0145118D01*
X0157382Y0144907D01*
X0157447Y0144698D01*
X0157518Y0144491D01*
X0157594Y0144285D01*
X0157675Y0144081D01*
X0157760Y0143879D01*
X0157851Y0143680D01*
X0157946Y0143483D01*
X0158047Y0143288D01*
X0158152Y0143095D01*
X0158261Y0142905D01*
X0158375Y0142718D01*
X0158494Y0142534D01*
X0158617Y0142353D01*
X0158745Y0142175D01*
X0158877Y0141999D01*
X0159013Y0141828D01*
X0159153Y0141659D01*
X0159297Y0141494D01*
X0159445Y0141333D01*
X0159597Y0141175D01*
X0159753Y0141021D01*
X0159913Y0140871D01*
X0160076Y0140724D01*
X0160243Y0140582D01*
X0160413Y0140444D01*
X0160587Y0140310D01*
X0160763Y0140180D01*
X0160943Y0140055D01*
X0161126Y0139934D01*
X0161312Y0139818D01*
X0161500Y0139706D01*
X0161691Y0139599D01*
X0161885Y0139496D01*
X0162081Y0139398D01*
X0162279Y0139305D01*
X0162480Y0139217D01*
X0162683Y0139134D01*
X0162888Y0139055D01*
X0163094Y0138982D01*
X0163302Y0138914D01*
X0163512Y0138851D01*
X0163724Y0138793D01*
X0163936Y0138740D01*
X0164150Y0138692D01*
X0164365Y0138650D01*
X0164581Y0138613D01*
X0164798Y0138581D01*
X0165016Y0138554D01*
X0165234Y0138533D01*
X0165452Y0138517D01*
X0165671Y0138506D01*
X0165890Y0138501D01*
X0166110Y0138501D01*
X0166329Y0138506D01*
X0166548Y0138517D01*
X0166766Y0138533D01*
X0166984Y0138554D01*
X0167202Y0138581D01*
X0167419Y0138613D01*
X0167635Y0138650D01*
X0167850Y0138692D01*
X0168064Y0138740D01*
X0168276Y0138793D01*
X0168488Y0138851D01*
X0168698Y0138914D01*
X0168906Y0138982D01*
X0169112Y0139055D01*
X0169317Y0139134D01*
X0169520Y0139217D01*
X0169721Y0139305D01*
X0169919Y0139398D01*
X0170115Y0139496D01*
X0170309Y0139599D01*
X0170500Y0139706D01*
X0170688Y0139818D01*
X0170874Y0139934D01*
X0171057Y0140055D01*
X0171237Y0140180D01*
X0171413Y0140310D01*
X0171587Y0140444D01*
X0171757Y0140582D01*
X0171924Y0140724D01*
X0172087Y0140871D01*
X0172247Y0141021D01*
X0172403Y0141175D01*
X0172555Y0141333D01*
X0172703Y0141494D01*
X0172847Y0141659D01*
X0172987Y0141828D01*
X0173123Y0141999D01*
X0173255Y0142175D01*
X0173383Y0142353D01*
X0173506Y0142534D01*
X0173625Y0142718D01*
X0173739Y0142905D01*
X0173848Y0143095D01*
X0173953Y0143288D01*
X0174054Y0143483D01*
X0174149Y0143680D01*
X0174240Y0143879D01*
X0174325Y0144081D01*
X0174406Y0144285D01*
X0174482Y0144491D01*
X0174553Y0144698D01*
X0174618Y0144907D01*
X0174679Y0145118D01*
X0174734Y0145330D01*
X0174785Y0145543D01*
X0174830Y0145758D01*
X0174870Y0145973D01*
X0174904Y0146190D01*
X0174933Y0146407D01*
X0174957Y0146625D01*
X0174976Y0146843D01*
X0174989Y0147062D01*
X0174997Y0147281D01*
X0175000Y0147500D01*
X0192220Y0151000D02*
X0204031Y0151000D01*
X0204031Y0153500D01*
X0207969Y0153500D02*
X0207969Y0151000D01*
X0219780Y0151000D01*
X0207969Y0151000D02*
X0207969Y0148500D01*
X0204031Y0148500D02*
X0204031Y0151000D01*
X0204031Y0173500D02*
X0204031Y0176000D01*
X0192220Y0176000D01*
X0204031Y0176000D02*
X0204031Y0178500D01*
X0207969Y0178500D02*
X0207969Y0176000D01*
X0219780Y0176000D01*
X0207969Y0176000D02*
X0207969Y0173500D01*
X0089388Y0144410D02*
X0077577Y0144410D01*
X0077577Y0146910D01*
X0077577Y0144410D02*
X0077577Y0141910D01*
X0073640Y0141910D02*
X0073640Y0144410D01*
X0061829Y0144410D01*
X0073640Y0144410D02*
X0073640Y0146910D01*
D12*
X0073965Y0140225D02*
X0073648Y0139908D01*
X0073648Y0138640D01*
X0073965Y0138323D01*
X0074599Y0138323D01*
X0074916Y0138640D01*
X0075858Y0138640D02*
X0076175Y0138323D01*
X0076809Y0138323D01*
X0077126Y0138640D01*
X0077126Y0139274D01*
X0076809Y0139591D01*
X0076492Y0139591D01*
X0075858Y0139274D01*
X0075858Y0140225D01*
X0077126Y0140225D01*
X0074916Y0139908D02*
X0074599Y0140225D01*
X0073965Y0140225D01*
X0060823Y0135083D02*
X0060323Y0123583D01*
X0059323Y0122583D01*
X0022323Y0122583D01*
X0021323Y0123583D01*
X0020823Y0135083D01*
X0022123Y0124983D02*
X0022125Y0125046D01*
X0022131Y0125108D01*
X0022141Y0125170D01*
X0022154Y0125232D01*
X0022172Y0125292D01*
X0022193Y0125351D01*
X0022218Y0125409D01*
X0022247Y0125465D01*
X0022279Y0125519D01*
X0022314Y0125571D01*
X0022352Y0125620D01*
X0022394Y0125668D01*
X0022438Y0125712D01*
X0022486Y0125754D01*
X0022535Y0125792D01*
X0022587Y0125827D01*
X0022641Y0125859D01*
X0022697Y0125888D01*
X0022755Y0125913D01*
X0022814Y0125934D01*
X0022874Y0125952D01*
X0022936Y0125965D01*
X0022998Y0125975D01*
X0023060Y0125981D01*
X0023123Y0125983D01*
X0023186Y0125981D01*
X0023248Y0125975D01*
X0023310Y0125965D01*
X0023372Y0125952D01*
X0023432Y0125934D01*
X0023491Y0125913D01*
X0023549Y0125888D01*
X0023605Y0125859D01*
X0023659Y0125827D01*
X0023711Y0125792D01*
X0023760Y0125754D01*
X0023808Y0125712D01*
X0023852Y0125668D01*
X0023894Y0125620D01*
X0023932Y0125571D01*
X0023967Y0125519D01*
X0023999Y0125465D01*
X0024028Y0125409D01*
X0024053Y0125351D01*
X0024074Y0125292D01*
X0024092Y0125232D01*
X0024105Y0125170D01*
X0024115Y0125108D01*
X0024121Y0125046D01*
X0024123Y0124983D01*
X0024121Y0124920D01*
X0024115Y0124858D01*
X0024105Y0124796D01*
X0024092Y0124734D01*
X0024074Y0124674D01*
X0024053Y0124615D01*
X0024028Y0124557D01*
X0023999Y0124501D01*
X0023967Y0124447D01*
X0023932Y0124395D01*
X0023894Y0124346D01*
X0023852Y0124298D01*
X0023808Y0124254D01*
X0023760Y0124212D01*
X0023711Y0124174D01*
X0023659Y0124139D01*
X0023605Y0124107D01*
X0023549Y0124078D01*
X0023491Y0124053D01*
X0023432Y0124032D01*
X0023372Y0124014D01*
X0023310Y0124001D01*
X0023248Y0123991D01*
X0023186Y0123985D01*
X0023123Y0123983D01*
X0023060Y0123985D01*
X0022998Y0123991D01*
X0022936Y0124001D01*
X0022874Y0124014D01*
X0022814Y0124032D01*
X0022755Y0124053D01*
X0022697Y0124078D01*
X0022641Y0124107D01*
X0022587Y0124139D01*
X0022535Y0124174D01*
X0022486Y0124212D01*
X0022438Y0124254D01*
X0022394Y0124298D01*
X0022352Y0124346D01*
X0022314Y0124395D01*
X0022279Y0124447D01*
X0022247Y0124501D01*
X0022218Y0124557D01*
X0022193Y0124615D01*
X0022172Y0124674D01*
X0022154Y0124734D01*
X0022141Y0124796D01*
X0022131Y0124858D01*
X0022125Y0124920D01*
X0022123Y0124983D01*
X0021824Y0120537D02*
X0021824Y0116033D01*
X0022574Y0116033D02*
X0021073Y0116033D01*
X0024142Y0116784D02*
X0024142Y0119786D01*
X0024893Y0120537D01*
X0026394Y0120537D01*
X0027145Y0119786D01*
X0028746Y0119036D02*
X0030247Y0120537D01*
X0030247Y0116033D01*
X0028746Y0116033D02*
X0031749Y0116033D01*
X0027145Y0116784D02*
X0026394Y0116033D01*
X0024893Y0116033D01*
X0024142Y0116784D01*
X0022574Y0120537D02*
X0021073Y0120537D01*
X0021000Y0111500D02*
X0021500Y0100000D01*
X0022500Y0099000D01*
X0059500Y0099000D01*
X0060500Y0100000D01*
X0061000Y0111500D01*
X0031926Y0096203D02*
X0031926Y0095453D01*
X0031175Y0094702D01*
X0031926Y0093951D01*
X0031926Y0093201D01*
X0031175Y0092450D01*
X0029674Y0092450D01*
X0028923Y0093201D01*
X0027322Y0093201D02*
X0026571Y0092450D01*
X0025070Y0092450D01*
X0024319Y0093201D01*
X0024319Y0096203D01*
X0025070Y0096954D01*
X0026571Y0096954D01*
X0027322Y0096203D01*
X0028923Y0096203D02*
X0029674Y0096954D01*
X0031175Y0096954D01*
X0031926Y0096203D01*
X0031175Y0094702D02*
X0030424Y0094702D01*
X0022751Y0096954D02*
X0021250Y0096954D01*
X0022001Y0096954D02*
X0022001Y0092450D01*
X0022751Y0092450D02*
X0021250Y0092450D01*
X0022300Y0101400D02*
X0022302Y0101463D01*
X0022308Y0101525D01*
X0022318Y0101587D01*
X0022331Y0101649D01*
X0022349Y0101709D01*
X0022370Y0101768D01*
X0022395Y0101826D01*
X0022424Y0101882D01*
X0022456Y0101936D01*
X0022491Y0101988D01*
X0022529Y0102037D01*
X0022571Y0102085D01*
X0022615Y0102129D01*
X0022663Y0102171D01*
X0022712Y0102209D01*
X0022764Y0102244D01*
X0022818Y0102276D01*
X0022874Y0102305D01*
X0022932Y0102330D01*
X0022991Y0102351D01*
X0023051Y0102369D01*
X0023113Y0102382D01*
X0023175Y0102392D01*
X0023237Y0102398D01*
X0023300Y0102400D01*
X0023363Y0102398D01*
X0023425Y0102392D01*
X0023487Y0102382D01*
X0023549Y0102369D01*
X0023609Y0102351D01*
X0023668Y0102330D01*
X0023726Y0102305D01*
X0023782Y0102276D01*
X0023836Y0102244D01*
X0023888Y0102209D01*
X0023937Y0102171D01*
X0023985Y0102129D01*
X0024029Y0102085D01*
X0024071Y0102037D01*
X0024109Y0101988D01*
X0024144Y0101936D01*
X0024176Y0101882D01*
X0024205Y0101826D01*
X0024230Y0101768D01*
X0024251Y0101709D01*
X0024269Y0101649D01*
X0024282Y0101587D01*
X0024292Y0101525D01*
X0024298Y0101463D01*
X0024300Y0101400D01*
X0024298Y0101337D01*
X0024292Y0101275D01*
X0024282Y0101213D01*
X0024269Y0101151D01*
X0024251Y0101091D01*
X0024230Y0101032D01*
X0024205Y0100974D01*
X0024176Y0100918D01*
X0024144Y0100864D01*
X0024109Y0100812D01*
X0024071Y0100763D01*
X0024029Y0100715D01*
X0023985Y0100671D01*
X0023937Y0100629D01*
X0023888Y0100591D01*
X0023836Y0100556D01*
X0023782Y0100524D01*
X0023726Y0100495D01*
X0023668Y0100470D01*
X0023609Y0100449D01*
X0023549Y0100431D01*
X0023487Y0100418D01*
X0023425Y0100408D01*
X0023363Y0100402D01*
X0023300Y0100400D01*
X0023237Y0100402D01*
X0023175Y0100408D01*
X0023113Y0100418D01*
X0023051Y0100431D01*
X0022991Y0100449D01*
X0022932Y0100470D01*
X0022874Y0100495D01*
X0022818Y0100524D01*
X0022764Y0100556D01*
X0022712Y0100591D01*
X0022663Y0100629D01*
X0022615Y0100671D01*
X0022571Y0100715D01*
X0022529Y0100763D01*
X0022491Y0100812D01*
X0022456Y0100864D01*
X0022424Y0100918D01*
X0022395Y0100974D01*
X0022370Y0101032D01*
X0022349Y0101091D01*
X0022331Y0101151D01*
X0022318Y0101213D01*
X0022308Y0101275D01*
X0022302Y0101337D01*
X0022300Y0101400D01*
X0046000Y0086500D02*
X0046500Y0075000D01*
X0047500Y0074000D01*
X0084500Y0074000D01*
X0085500Y0075000D01*
X0086000Y0086500D01*
X0056175Y0071954D02*
X0053923Y0069702D01*
X0056926Y0069702D01*
X0056175Y0067450D02*
X0056175Y0071954D01*
X0052322Y0071203D02*
X0051571Y0071954D01*
X0050070Y0071954D01*
X0049319Y0071203D01*
X0049319Y0068201D01*
X0050070Y0067450D01*
X0051571Y0067450D01*
X0052322Y0068201D01*
X0047751Y0067450D02*
X0046250Y0067450D01*
X0047001Y0067450D02*
X0047001Y0071954D01*
X0047751Y0071954D02*
X0046250Y0071954D01*
X0047300Y0076400D02*
X0047302Y0076463D01*
X0047308Y0076525D01*
X0047318Y0076587D01*
X0047331Y0076649D01*
X0047349Y0076709D01*
X0047370Y0076768D01*
X0047395Y0076826D01*
X0047424Y0076882D01*
X0047456Y0076936D01*
X0047491Y0076988D01*
X0047529Y0077037D01*
X0047571Y0077085D01*
X0047615Y0077129D01*
X0047663Y0077171D01*
X0047712Y0077209D01*
X0047764Y0077244D01*
X0047818Y0077276D01*
X0047874Y0077305D01*
X0047932Y0077330D01*
X0047991Y0077351D01*
X0048051Y0077369D01*
X0048113Y0077382D01*
X0048175Y0077392D01*
X0048237Y0077398D01*
X0048300Y0077400D01*
X0048363Y0077398D01*
X0048425Y0077392D01*
X0048487Y0077382D01*
X0048549Y0077369D01*
X0048609Y0077351D01*
X0048668Y0077330D01*
X0048726Y0077305D01*
X0048782Y0077276D01*
X0048836Y0077244D01*
X0048888Y0077209D01*
X0048937Y0077171D01*
X0048985Y0077129D01*
X0049029Y0077085D01*
X0049071Y0077037D01*
X0049109Y0076988D01*
X0049144Y0076936D01*
X0049176Y0076882D01*
X0049205Y0076826D01*
X0049230Y0076768D01*
X0049251Y0076709D01*
X0049269Y0076649D01*
X0049282Y0076587D01*
X0049292Y0076525D01*
X0049298Y0076463D01*
X0049300Y0076400D01*
X0049298Y0076337D01*
X0049292Y0076275D01*
X0049282Y0076213D01*
X0049269Y0076151D01*
X0049251Y0076091D01*
X0049230Y0076032D01*
X0049205Y0075974D01*
X0049176Y0075918D01*
X0049144Y0075864D01*
X0049109Y0075812D01*
X0049071Y0075763D01*
X0049029Y0075715D01*
X0048985Y0075671D01*
X0048937Y0075629D01*
X0048888Y0075591D01*
X0048836Y0075556D01*
X0048782Y0075524D01*
X0048726Y0075495D01*
X0048668Y0075470D01*
X0048609Y0075449D01*
X0048549Y0075431D01*
X0048487Y0075418D01*
X0048425Y0075408D01*
X0048363Y0075402D01*
X0048300Y0075400D01*
X0048237Y0075402D01*
X0048175Y0075408D01*
X0048113Y0075418D01*
X0048051Y0075431D01*
X0047991Y0075449D01*
X0047932Y0075470D01*
X0047874Y0075495D01*
X0047818Y0075524D01*
X0047764Y0075556D01*
X0047712Y0075591D01*
X0047663Y0075629D01*
X0047615Y0075671D01*
X0047571Y0075715D01*
X0047529Y0075763D01*
X0047491Y0075812D01*
X0047456Y0075864D01*
X0047424Y0075918D01*
X0047395Y0075974D01*
X0047370Y0076032D01*
X0047349Y0076091D01*
X0047331Y0076151D01*
X0047318Y0076213D01*
X0047308Y0076275D01*
X0047302Y0076337D01*
X0047300Y0076400D01*
X0046000Y0061500D02*
X0046500Y0050000D01*
X0047500Y0049000D01*
X0084500Y0049000D01*
X0085500Y0050000D01*
X0086000Y0061500D01*
X0056926Y0046954D02*
X0053923Y0046954D01*
X0053923Y0044702D01*
X0055424Y0045453D01*
X0056175Y0045453D01*
X0056926Y0044702D01*
X0056926Y0043201D01*
X0056175Y0042450D01*
X0054674Y0042450D01*
X0053923Y0043201D01*
X0052322Y0043201D02*
X0051571Y0042450D01*
X0050070Y0042450D01*
X0049319Y0043201D01*
X0049319Y0046203D01*
X0050070Y0046954D01*
X0051571Y0046954D01*
X0052322Y0046203D01*
X0047751Y0046954D02*
X0046250Y0046954D01*
X0047001Y0046954D02*
X0047001Y0042450D01*
X0047751Y0042450D02*
X0046250Y0042450D01*
X0046000Y0036500D02*
X0046500Y0025000D01*
X0047500Y0024000D01*
X0084500Y0024000D01*
X0085500Y0025000D01*
X0086000Y0036500D01*
X0106000Y0036500D02*
X0106500Y0025000D01*
X0107500Y0024000D01*
X0144500Y0024000D01*
X0145500Y0025000D01*
X0146000Y0036500D01*
X0116926Y0021954D02*
X0116926Y0021203D01*
X0113923Y0018201D01*
X0113923Y0017450D01*
X0112322Y0018201D02*
X0111571Y0017450D01*
X0110070Y0017450D01*
X0109319Y0018201D01*
X0109319Y0021203D01*
X0110070Y0021954D01*
X0111571Y0021954D01*
X0112322Y0021203D01*
X0113923Y0021954D02*
X0116926Y0021954D01*
X0107300Y0026400D02*
X0107302Y0026463D01*
X0107308Y0026525D01*
X0107318Y0026587D01*
X0107331Y0026649D01*
X0107349Y0026709D01*
X0107370Y0026768D01*
X0107395Y0026826D01*
X0107424Y0026882D01*
X0107456Y0026936D01*
X0107491Y0026988D01*
X0107529Y0027037D01*
X0107571Y0027085D01*
X0107615Y0027129D01*
X0107663Y0027171D01*
X0107712Y0027209D01*
X0107764Y0027244D01*
X0107818Y0027276D01*
X0107874Y0027305D01*
X0107932Y0027330D01*
X0107991Y0027351D01*
X0108051Y0027369D01*
X0108113Y0027382D01*
X0108175Y0027392D01*
X0108237Y0027398D01*
X0108300Y0027400D01*
X0108363Y0027398D01*
X0108425Y0027392D01*
X0108487Y0027382D01*
X0108549Y0027369D01*
X0108609Y0027351D01*
X0108668Y0027330D01*
X0108726Y0027305D01*
X0108782Y0027276D01*
X0108836Y0027244D01*
X0108888Y0027209D01*
X0108937Y0027171D01*
X0108985Y0027129D01*
X0109029Y0027085D01*
X0109071Y0027037D01*
X0109109Y0026988D01*
X0109144Y0026936D01*
X0109176Y0026882D01*
X0109205Y0026826D01*
X0109230Y0026768D01*
X0109251Y0026709D01*
X0109269Y0026649D01*
X0109282Y0026587D01*
X0109292Y0026525D01*
X0109298Y0026463D01*
X0109300Y0026400D01*
X0109298Y0026337D01*
X0109292Y0026275D01*
X0109282Y0026213D01*
X0109269Y0026151D01*
X0109251Y0026091D01*
X0109230Y0026032D01*
X0109205Y0025974D01*
X0109176Y0025918D01*
X0109144Y0025864D01*
X0109109Y0025812D01*
X0109071Y0025763D01*
X0109029Y0025715D01*
X0108985Y0025671D01*
X0108937Y0025629D01*
X0108888Y0025591D01*
X0108836Y0025556D01*
X0108782Y0025524D01*
X0108726Y0025495D01*
X0108668Y0025470D01*
X0108609Y0025449D01*
X0108549Y0025431D01*
X0108487Y0025418D01*
X0108425Y0025408D01*
X0108363Y0025402D01*
X0108300Y0025400D01*
X0108237Y0025402D01*
X0108175Y0025408D01*
X0108113Y0025418D01*
X0108051Y0025431D01*
X0107991Y0025449D01*
X0107932Y0025470D01*
X0107874Y0025495D01*
X0107818Y0025524D01*
X0107764Y0025556D01*
X0107712Y0025591D01*
X0107663Y0025629D01*
X0107615Y0025671D01*
X0107571Y0025715D01*
X0107529Y0025763D01*
X0107491Y0025812D01*
X0107456Y0025864D01*
X0107424Y0025918D01*
X0107395Y0025974D01*
X0107370Y0026032D01*
X0107349Y0026091D01*
X0107331Y0026151D01*
X0107318Y0026213D01*
X0107308Y0026275D01*
X0107302Y0026337D01*
X0107300Y0026400D01*
X0107001Y0021954D02*
X0107001Y0017450D01*
X0107751Y0017450D02*
X0106250Y0017450D01*
X0106250Y0021954D02*
X0107751Y0021954D01*
X0056926Y0021954D02*
X0055424Y0021203D01*
X0053923Y0019702D01*
X0056175Y0019702D01*
X0056926Y0018951D01*
X0056926Y0018201D01*
X0056175Y0017450D01*
X0054674Y0017450D01*
X0053923Y0018201D01*
X0053923Y0019702D01*
X0052322Y0021203D02*
X0051571Y0021954D01*
X0050070Y0021954D01*
X0049319Y0021203D01*
X0049319Y0018201D01*
X0050070Y0017450D01*
X0051571Y0017450D01*
X0052322Y0018201D01*
X0047751Y0017450D02*
X0046250Y0017450D01*
X0047001Y0017450D02*
X0047001Y0021954D01*
X0047751Y0021954D02*
X0046250Y0021954D01*
X0047300Y0026400D02*
X0047302Y0026463D01*
X0047308Y0026525D01*
X0047318Y0026587D01*
X0047331Y0026649D01*
X0047349Y0026709D01*
X0047370Y0026768D01*
X0047395Y0026826D01*
X0047424Y0026882D01*
X0047456Y0026936D01*
X0047491Y0026988D01*
X0047529Y0027037D01*
X0047571Y0027085D01*
X0047615Y0027129D01*
X0047663Y0027171D01*
X0047712Y0027209D01*
X0047764Y0027244D01*
X0047818Y0027276D01*
X0047874Y0027305D01*
X0047932Y0027330D01*
X0047991Y0027351D01*
X0048051Y0027369D01*
X0048113Y0027382D01*
X0048175Y0027392D01*
X0048237Y0027398D01*
X0048300Y0027400D01*
X0048363Y0027398D01*
X0048425Y0027392D01*
X0048487Y0027382D01*
X0048549Y0027369D01*
X0048609Y0027351D01*
X0048668Y0027330D01*
X0048726Y0027305D01*
X0048782Y0027276D01*
X0048836Y0027244D01*
X0048888Y0027209D01*
X0048937Y0027171D01*
X0048985Y0027129D01*
X0049029Y0027085D01*
X0049071Y0027037D01*
X0049109Y0026988D01*
X0049144Y0026936D01*
X0049176Y0026882D01*
X0049205Y0026826D01*
X0049230Y0026768D01*
X0049251Y0026709D01*
X0049269Y0026649D01*
X0049282Y0026587D01*
X0049292Y0026525D01*
X0049298Y0026463D01*
X0049300Y0026400D01*
X0049298Y0026337D01*
X0049292Y0026275D01*
X0049282Y0026213D01*
X0049269Y0026151D01*
X0049251Y0026091D01*
X0049230Y0026032D01*
X0049205Y0025974D01*
X0049176Y0025918D01*
X0049144Y0025864D01*
X0049109Y0025812D01*
X0049071Y0025763D01*
X0049029Y0025715D01*
X0048985Y0025671D01*
X0048937Y0025629D01*
X0048888Y0025591D01*
X0048836Y0025556D01*
X0048782Y0025524D01*
X0048726Y0025495D01*
X0048668Y0025470D01*
X0048609Y0025449D01*
X0048549Y0025431D01*
X0048487Y0025418D01*
X0048425Y0025408D01*
X0048363Y0025402D01*
X0048300Y0025400D01*
X0048237Y0025402D01*
X0048175Y0025408D01*
X0048113Y0025418D01*
X0048051Y0025431D01*
X0047991Y0025449D01*
X0047932Y0025470D01*
X0047874Y0025495D01*
X0047818Y0025524D01*
X0047764Y0025556D01*
X0047712Y0025591D01*
X0047663Y0025629D01*
X0047615Y0025671D01*
X0047571Y0025715D01*
X0047529Y0025763D01*
X0047491Y0025812D01*
X0047456Y0025864D01*
X0047424Y0025918D01*
X0047395Y0025974D01*
X0047370Y0026032D01*
X0047349Y0026091D01*
X0047331Y0026151D01*
X0047318Y0026213D01*
X0047308Y0026275D01*
X0047302Y0026337D01*
X0047300Y0026400D01*
X0047300Y0051400D02*
X0047302Y0051463D01*
X0047308Y0051525D01*
X0047318Y0051587D01*
X0047331Y0051649D01*
X0047349Y0051709D01*
X0047370Y0051768D01*
X0047395Y0051826D01*
X0047424Y0051882D01*
X0047456Y0051936D01*
X0047491Y0051988D01*
X0047529Y0052037D01*
X0047571Y0052085D01*
X0047615Y0052129D01*
X0047663Y0052171D01*
X0047712Y0052209D01*
X0047764Y0052244D01*
X0047818Y0052276D01*
X0047874Y0052305D01*
X0047932Y0052330D01*
X0047991Y0052351D01*
X0048051Y0052369D01*
X0048113Y0052382D01*
X0048175Y0052392D01*
X0048237Y0052398D01*
X0048300Y0052400D01*
X0048363Y0052398D01*
X0048425Y0052392D01*
X0048487Y0052382D01*
X0048549Y0052369D01*
X0048609Y0052351D01*
X0048668Y0052330D01*
X0048726Y0052305D01*
X0048782Y0052276D01*
X0048836Y0052244D01*
X0048888Y0052209D01*
X0048937Y0052171D01*
X0048985Y0052129D01*
X0049029Y0052085D01*
X0049071Y0052037D01*
X0049109Y0051988D01*
X0049144Y0051936D01*
X0049176Y0051882D01*
X0049205Y0051826D01*
X0049230Y0051768D01*
X0049251Y0051709D01*
X0049269Y0051649D01*
X0049282Y0051587D01*
X0049292Y0051525D01*
X0049298Y0051463D01*
X0049300Y0051400D01*
X0049298Y0051337D01*
X0049292Y0051275D01*
X0049282Y0051213D01*
X0049269Y0051151D01*
X0049251Y0051091D01*
X0049230Y0051032D01*
X0049205Y0050974D01*
X0049176Y0050918D01*
X0049144Y0050864D01*
X0049109Y0050812D01*
X0049071Y0050763D01*
X0049029Y0050715D01*
X0048985Y0050671D01*
X0048937Y0050629D01*
X0048888Y0050591D01*
X0048836Y0050556D01*
X0048782Y0050524D01*
X0048726Y0050495D01*
X0048668Y0050470D01*
X0048609Y0050449D01*
X0048549Y0050431D01*
X0048487Y0050418D01*
X0048425Y0050408D01*
X0048363Y0050402D01*
X0048300Y0050400D01*
X0048237Y0050402D01*
X0048175Y0050408D01*
X0048113Y0050418D01*
X0048051Y0050431D01*
X0047991Y0050449D01*
X0047932Y0050470D01*
X0047874Y0050495D01*
X0047818Y0050524D01*
X0047764Y0050556D01*
X0047712Y0050591D01*
X0047663Y0050629D01*
X0047615Y0050671D01*
X0047571Y0050715D01*
X0047529Y0050763D01*
X0047491Y0050812D01*
X0047456Y0050864D01*
X0047424Y0050918D01*
X0047395Y0050974D01*
X0047370Y0051032D01*
X0047349Y0051091D01*
X0047331Y0051151D01*
X0047318Y0051213D01*
X0047308Y0051275D01*
X0047302Y0051337D01*
X0047300Y0051400D01*
X0164911Y0109357D02*
X0165228Y0109040D01*
X0166496Y0109040D01*
X0166813Y0109357D01*
X0166813Y0109991D01*
X0166496Y0110308D01*
X0166496Y0111250D02*
X0166813Y0111567D01*
X0166813Y0112201D01*
X0166496Y0112518D01*
X0166179Y0112518D01*
X0165862Y0112201D01*
X0165862Y0111250D01*
X0166496Y0111250D01*
X0165862Y0111250D02*
X0165228Y0111884D01*
X0164911Y0112518D01*
X0165228Y0110308D02*
X0164911Y0109991D01*
X0164911Y0109357D01*
X0190746Y0101356D02*
X0190746Y0098354D01*
X0192998Y0098354D01*
X0192247Y0099855D01*
X0192247Y0100606D01*
X0192998Y0101356D01*
X0194499Y0101356D01*
X0195250Y0100606D01*
X0195250Y0099105D01*
X0194499Y0098354D01*
X0195250Y0096753D02*
X0193749Y0095251D01*
X0193749Y0096002D02*
X0193749Y0093750D01*
X0195250Y0093750D02*
X0190746Y0093750D01*
X0190746Y0096002D01*
X0191497Y0096753D01*
X0192998Y0096753D01*
X0193749Y0096002D01*
X0229746Y0069814D02*
X0231998Y0067562D01*
X0231998Y0070564D01*
X0234250Y0069814D02*
X0229746Y0069814D01*
X0230497Y0065960D02*
X0229746Y0065210D01*
X0229746Y0062958D01*
X0234250Y0062958D01*
X0234250Y0065210D01*
X0233499Y0065960D01*
X0230497Y0065960D01*
X0229746Y0061356D02*
X0229746Y0058354D01*
X0234250Y0058354D01*
X0234250Y0061356D01*
X0231998Y0059855D02*
X0231998Y0058354D01*
X0234250Y0056753D02*
X0234250Y0053750D01*
X0229746Y0053750D01*
X0199649Y0041250D02*
X0196646Y0041250D01*
X0198147Y0041250D02*
X0198147Y0045754D01*
X0196646Y0044253D01*
X0195045Y0045003D02*
X0194294Y0045754D01*
X0192793Y0045754D01*
X0192042Y0045003D01*
X0192042Y0044253D01*
X0192793Y0043502D01*
X0194294Y0043502D01*
X0195045Y0042751D01*
X0195045Y0042001D01*
X0194294Y0041250D01*
X0192793Y0041250D01*
X0192042Y0042001D01*
X0259938Y0020254D02*
X0259938Y0015750D01*
X0259938Y0017251D02*
X0262190Y0017251D01*
X0262941Y0018002D01*
X0262941Y0019503D01*
X0262190Y0020254D01*
X0259938Y0020254D01*
X0261439Y0017251D02*
X0262941Y0015750D01*
X0264542Y0015750D02*
X0267545Y0018753D01*
X0267545Y0019503D01*
X0266794Y0020254D01*
X0265293Y0020254D01*
X0264542Y0019503D01*
X0269146Y0018753D02*
X0270647Y0020254D01*
X0270647Y0015750D01*
X0269146Y0015750D02*
X0272149Y0015750D01*
X0267545Y0015750D02*
X0264542Y0015750D01*
X0296748Y0044357D02*
X0297065Y0044040D01*
X0298333Y0044040D01*
X0298650Y0044357D01*
X0298650Y0044991D01*
X0298333Y0045308D01*
X0297699Y0046250D02*
X0297699Y0047518D01*
X0296748Y0047201D02*
X0297699Y0046250D01*
X0297065Y0045308D02*
X0296748Y0044991D01*
X0296748Y0044357D01*
X0296748Y0047201D02*
X0298650Y0047201D01*
X0262201Y0086750D02*
X0261567Y0086750D01*
X0261250Y0087067D01*
X0261884Y0087701D02*
X0262201Y0087701D01*
X0262518Y0087384D01*
X0262518Y0087067D01*
X0262201Y0086750D01*
X0262201Y0087701D02*
X0262518Y0088018D01*
X0262518Y0088335D01*
X0262201Y0088652D01*
X0261567Y0088652D01*
X0261250Y0088335D01*
X0260308Y0088335D02*
X0259991Y0088652D01*
X0259357Y0088652D01*
X0259040Y0088335D01*
X0259040Y0087067D01*
X0259357Y0086750D01*
X0259991Y0086750D01*
X0260308Y0087067D01*
X0290042Y0134750D02*
X0292294Y0134750D01*
X0293045Y0135501D01*
X0293045Y0138503D01*
X0292294Y0139254D01*
X0290042Y0139254D01*
X0290042Y0134750D01*
X0294646Y0137002D02*
X0297649Y0137002D01*
X0296898Y0134750D02*
X0296898Y0139254D01*
X0294646Y0137002D01*
X0294646Y0164750D02*
X0297649Y0167753D01*
X0297649Y0168503D01*
X0296898Y0169254D01*
X0295397Y0169254D01*
X0294646Y0168503D01*
X0293045Y0168503D02*
X0292294Y0169254D01*
X0290042Y0169254D01*
X0290042Y0164750D01*
X0292294Y0164750D01*
X0293045Y0165501D01*
X0293045Y0168503D01*
X0294646Y0164750D02*
X0297649Y0164750D01*
X0355042Y0164750D02*
X0357294Y0164750D01*
X0358045Y0165501D01*
X0358045Y0168503D01*
X0357294Y0169254D01*
X0355042Y0169254D01*
X0355042Y0164750D01*
X0359646Y0164750D02*
X0362649Y0164750D01*
X0361147Y0164750D02*
X0361147Y0169254D01*
X0359646Y0167753D01*
X0360397Y0139254D02*
X0361898Y0139254D01*
X0362649Y0138503D01*
X0362649Y0137753D01*
X0361898Y0137002D01*
X0362649Y0136251D01*
X0362649Y0135501D01*
X0361898Y0134750D01*
X0360397Y0134750D01*
X0359646Y0135501D01*
X0358045Y0135501D02*
X0358045Y0138503D01*
X0357294Y0139254D01*
X0355042Y0139254D01*
X0355042Y0134750D01*
X0357294Y0134750D01*
X0358045Y0135501D01*
X0359646Y0138503D02*
X0360397Y0139254D01*
X0361147Y0137002D02*
X0361898Y0137002D01*
X0337753Y0201450D02*
X0334750Y0201450D01*
X0336251Y0201450D02*
X0336251Y0205954D01*
X0334750Y0204453D01*
X0334502Y0232350D02*
X0333001Y0232350D01*
X0332250Y0233101D01*
X0333001Y0234602D02*
X0334502Y0234602D01*
X0335253Y0233851D01*
X0335253Y0233101D01*
X0334502Y0232350D01*
X0336854Y0232350D02*
X0339856Y0232350D01*
X0341458Y0232350D02*
X0344460Y0232350D01*
X0342959Y0232350D02*
X0342959Y0236854D01*
X0341458Y0235353D01*
X0336854Y0236854D02*
X0336854Y0232350D01*
X0333001Y0234602D02*
X0332250Y0235353D01*
X0332250Y0236103D01*
X0333001Y0236854D01*
X0334502Y0236854D01*
X0335253Y0236103D01*
X0206884Y0171815D02*
X0206884Y0169913D01*
X0206250Y0169913D02*
X0207518Y0169913D01*
X0206250Y0171181D02*
X0206884Y0171815D01*
X0205308Y0171498D02*
X0204991Y0171815D01*
X0204357Y0171815D01*
X0204040Y0171498D01*
X0204040Y0170230D01*
X0204357Y0169913D01*
X0204991Y0169913D01*
X0205308Y0170230D01*
X0178150Y0162518D02*
X0178150Y0161250D01*
X0178150Y0161884D02*
X0176248Y0161884D01*
X0176882Y0161250D01*
X0176565Y0160308D02*
X0176248Y0160308D01*
X0176565Y0160308D02*
X0177199Y0159674D01*
X0178150Y0159674D01*
X0177199Y0159674D02*
X0176565Y0159040D01*
X0176248Y0159040D01*
X0204040Y0146498D02*
X0204040Y0145230D01*
X0204357Y0144913D01*
X0204991Y0144913D01*
X0205308Y0145230D01*
X0206250Y0144913D02*
X0207518Y0146181D01*
X0207518Y0146498D01*
X0207201Y0146815D01*
X0206567Y0146815D01*
X0206250Y0146498D01*
X0205308Y0146498D02*
X0204991Y0146815D01*
X0204357Y0146815D01*
X0204040Y0146498D01*
X0206250Y0144913D02*
X0207518Y0144913D01*
X0071850Y0202189D02*
X0071099Y0201438D01*
X0071850Y0202189D02*
X0071850Y0203690D01*
X0071099Y0204441D01*
X0070349Y0204441D01*
X0069598Y0203690D01*
X0069598Y0202189D01*
X0068847Y0201438D01*
X0068097Y0201438D01*
X0067346Y0202189D01*
X0067346Y0203690D01*
X0068097Y0204441D01*
X0067346Y0206042D02*
X0071850Y0206042D01*
X0071850Y0209045D01*
X0071099Y0210646D02*
X0071850Y0211397D01*
X0071850Y0212898D01*
X0071099Y0213649D01*
X0070349Y0213649D01*
X0069598Y0212898D01*
X0069598Y0212147D01*
X0069598Y0212898D02*
X0068847Y0213649D01*
X0068097Y0213649D01*
X0067346Y0212898D01*
X0067346Y0211397D01*
X0068097Y0210646D01*
X0040950Y0211149D02*
X0040950Y0208146D01*
X0040950Y0209647D02*
X0036446Y0209647D01*
X0037947Y0208146D01*
X0039049Y0161949D02*
X0038298Y0161198D01*
X0038298Y0158946D01*
X0039799Y0158946D01*
X0040550Y0159697D01*
X0040550Y0161198D01*
X0039799Y0161949D01*
X0039049Y0161949D01*
X0036797Y0160447D02*
X0036046Y0161949D01*
X0036797Y0160447D02*
X0038298Y0158946D01*
D13*
X0029500Y0157000D02*
X0054000Y0157000D01*
X0054000Y0165000D01*
X0054000Y0166000D01*
X0054000Y0167000D01*
X0030500Y0167000D01*
X0030500Y0165000D01*
X0029500Y0165000D01*
X0030500Y0165000D02*
X0054000Y0165000D01*
X0054000Y0164500D02*
X0064500Y0164500D01*
X0064500Y0157000D01*
X0054000Y0157000D01*
X0054000Y0160000D02*
X0060000Y0160000D01*
X0060000Y0162000D01*
X0054000Y0162000D01*
X0054000Y0166000D02*
X0063000Y0166000D01*
X0064500Y0164500D01*
X0063000Y0166000D02*
X0064500Y0167500D01*
X0054000Y0167500D01*
X0054000Y0167000D02*
X0054000Y0170000D01*
X0054000Y0172000D01*
X0054000Y0175000D01*
X0030500Y0175000D01*
X0029500Y0175000D01*
X0030500Y0175000D02*
X0030500Y0177000D01*
X0029500Y0177000D01*
X0030500Y0177000D02*
X0054000Y0177000D01*
X0054000Y0175000D01*
X0054000Y0177000D02*
X0054000Y0180000D01*
X0060000Y0180000D01*
X0060000Y0182000D01*
X0054000Y0182000D01*
X0054000Y0180000D01*
X0054000Y0182000D02*
X0054000Y0185000D01*
X0030500Y0185000D01*
X0029500Y0185000D01*
X0030500Y0185000D02*
X0030500Y0187000D01*
X0029500Y0187000D01*
X0030500Y0187000D02*
X0054000Y0187000D01*
X0054000Y0185000D01*
X0054000Y0187000D02*
X0054000Y0190000D01*
X0060000Y0190000D01*
X0060000Y0192000D01*
X0054000Y0192000D01*
X0054000Y0190000D01*
X0054000Y0192000D02*
X0054000Y0195000D01*
X0030500Y0195000D01*
X0029500Y0195000D01*
X0030500Y0195000D02*
X0030500Y0197000D01*
X0029500Y0197000D01*
X0030500Y0197000D02*
X0054000Y0197000D01*
X0054000Y0195000D01*
X0054000Y0197000D02*
X0054000Y0200000D01*
X0060000Y0200000D01*
X0060000Y0202000D01*
X0054000Y0202000D01*
X0054000Y0200000D01*
X0054000Y0202000D02*
X0054000Y0204500D01*
X0054000Y0205000D01*
X0030500Y0205000D01*
X0029500Y0205000D01*
X0030500Y0205000D02*
X0030500Y0207000D01*
X0029500Y0207000D01*
X0030500Y0207000D02*
X0054000Y0207000D01*
X0054000Y0206000D01*
X0054000Y0205000D01*
X0054000Y0204500D02*
X0064500Y0204500D01*
X0064500Y0167500D01*
X0062500Y0170500D02*
X0060000Y0170000D01*
X0054000Y0170000D01*
X0054000Y0172000D02*
X0060000Y0172000D01*
X0062500Y0171500D01*
X0062500Y0170500D01*
X0060000Y0170000D02*
X0060000Y0172000D01*
X0060000Y0180000D02*
X0062500Y0180500D01*
X0062500Y0181500D01*
X0060000Y0182000D01*
X0060000Y0190000D02*
X0062500Y0190500D01*
X0062500Y0191500D01*
X0060000Y0192000D01*
X0060000Y0200000D02*
X0062500Y0200500D01*
X0062500Y0201500D01*
X0060000Y0202000D01*
X0063000Y0206000D02*
X0054000Y0206000D01*
X0054000Y0207000D02*
X0054000Y0207500D01*
X0054000Y0210000D01*
X0060000Y0210000D01*
X0060000Y0212000D01*
X0054000Y0212000D01*
X0054000Y0210000D01*
X0054000Y0212000D02*
X0054000Y0215000D01*
X0029500Y0215000D01*
X0054000Y0215000D02*
X0064500Y0215000D01*
X0064500Y0207500D01*
X0054000Y0207500D01*
X0060000Y0210000D02*
X0062500Y0210500D01*
X0062500Y0211500D01*
X0060000Y0212000D01*
X0064500Y0215000D02*
X0065500Y0215000D01*
X0065500Y0157000D01*
X0064500Y0157000D01*
X0062500Y0160500D02*
X0060000Y0160000D01*
X0060000Y0162000D02*
X0062500Y0161500D01*
X0062500Y0160500D01*
X0030500Y0167000D02*
X0029500Y0167000D01*
X0064500Y0204500D02*
X0063000Y0206000D01*
X0064500Y0207500D01*
X0116000Y0206000D02*
X0116000Y0066000D01*
X0121000Y0066000D01*
X0121002Y0066140D01*
X0121008Y0066280D01*
X0121018Y0066420D01*
X0121031Y0066560D01*
X0121049Y0066699D01*
X0121071Y0066838D01*
X0121096Y0066975D01*
X0121125Y0067113D01*
X0121158Y0067249D01*
X0121195Y0067384D01*
X0121236Y0067518D01*
X0121281Y0067651D01*
X0121329Y0067783D01*
X0121381Y0067913D01*
X0121436Y0068042D01*
X0121495Y0068169D01*
X0121558Y0068295D01*
X0121624Y0068419D01*
X0121693Y0068540D01*
X0121766Y0068660D01*
X0121843Y0068778D01*
X0121922Y0068893D01*
X0122005Y0069007D01*
X0122091Y0069117D01*
X0122180Y0069226D01*
X0122272Y0069332D01*
X0122367Y0069435D01*
X0122464Y0069536D01*
X0122565Y0069633D01*
X0122668Y0069728D01*
X0122774Y0069820D01*
X0122883Y0069909D01*
X0122993Y0069995D01*
X0123107Y0070078D01*
X0123222Y0070157D01*
X0123340Y0070234D01*
X0123460Y0070307D01*
X0123581Y0070376D01*
X0123705Y0070442D01*
X0123831Y0070505D01*
X0123958Y0070564D01*
X0124087Y0070619D01*
X0124217Y0070671D01*
X0124349Y0070719D01*
X0124482Y0070764D01*
X0124616Y0070805D01*
X0124751Y0070842D01*
X0124887Y0070875D01*
X0125025Y0070904D01*
X0125162Y0070929D01*
X0125301Y0070951D01*
X0125440Y0070969D01*
X0125580Y0070982D01*
X0125720Y0070992D01*
X0125860Y0070998D01*
X0126000Y0071000D01*
X0126140Y0070998D01*
X0126280Y0070992D01*
X0126420Y0070982D01*
X0126560Y0070969D01*
X0126699Y0070951D01*
X0126838Y0070929D01*
X0126975Y0070904D01*
X0127113Y0070875D01*
X0127249Y0070842D01*
X0127384Y0070805D01*
X0127518Y0070764D01*
X0127651Y0070719D01*
X0127783Y0070671D01*
X0127913Y0070619D01*
X0128042Y0070564D01*
X0128169Y0070505D01*
X0128295Y0070442D01*
X0128419Y0070376D01*
X0128540Y0070307D01*
X0128660Y0070234D01*
X0128778Y0070157D01*
X0128893Y0070078D01*
X0129007Y0069995D01*
X0129117Y0069909D01*
X0129226Y0069820D01*
X0129332Y0069728D01*
X0129435Y0069633D01*
X0129536Y0069536D01*
X0129633Y0069435D01*
X0129728Y0069332D01*
X0129820Y0069226D01*
X0129909Y0069117D01*
X0129995Y0069007D01*
X0130078Y0068893D01*
X0130157Y0068778D01*
X0130234Y0068660D01*
X0130307Y0068540D01*
X0130376Y0068419D01*
X0130442Y0068295D01*
X0130505Y0068169D01*
X0130564Y0068042D01*
X0130619Y0067913D01*
X0130671Y0067783D01*
X0130719Y0067651D01*
X0130764Y0067518D01*
X0130805Y0067384D01*
X0130842Y0067249D01*
X0130875Y0067113D01*
X0130904Y0066975D01*
X0130929Y0066838D01*
X0130951Y0066699D01*
X0130969Y0066560D01*
X0130982Y0066420D01*
X0130992Y0066280D01*
X0130998Y0066140D01*
X0131000Y0066000D01*
X0136000Y0066000D01*
X0136000Y0066500D02*
X0136000Y0206000D01*
X0116000Y0206000D01*
X0197500Y0118500D02*
X0204500Y0118500D01*
X0204560Y0118498D01*
X0204621Y0118493D01*
X0204680Y0118484D01*
X0204739Y0118471D01*
X0204798Y0118455D01*
X0204855Y0118435D01*
X0204910Y0118412D01*
X0204965Y0118385D01*
X0205017Y0118356D01*
X0205068Y0118323D01*
X0205117Y0118287D01*
X0205163Y0118249D01*
X0205207Y0118207D01*
X0205249Y0118163D01*
X0205287Y0118117D01*
X0205323Y0118068D01*
X0205356Y0118017D01*
X0205385Y0117965D01*
X0205412Y0117910D01*
X0205435Y0117855D01*
X0205455Y0117798D01*
X0205471Y0117739D01*
X0205484Y0117680D01*
X0205493Y0117621D01*
X0205498Y0117560D01*
X0205500Y0117500D01*
X0205500Y0116000D01*
X0205000Y0115500D01*
X0205000Y0096500D01*
X0205500Y0096000D01*
X0205500Y0094500D01*
X0205498Y0094440D01*
X0205493Y0094379D01*
X0205484Y0094320D01*
X0205471Y0094261D01*
X0205455Y0094202D01*
X0205435Y0094145D01*
X0205412Y0094090D01*
X0205385Y0094035D01*
X0205356Y0093983D01*
X0205323Y0093932D01*
X0205287Y0093883D01*
X0205249Y0093837D01*
X0205207Y0093793D01*
X0205163Y0093751D01*
X0205117Y0093713D01*
X0205068Y0093677D01*
X0205017Y0093644D01*
X0204965Y0093615D01*
X0204910Y0093588D01*
X0204855Y0093565D01*
X0204798Y0093545D01*
X0204739Y0093529D01*
X0204680Y0093516D01*
X0204621Y0093507D01*
X0204560Y0093502D01*
X0204500Y0093500D01*
X0197500Y0093500D01*
X0197440Y0093502D01*
X0197379Y0093507D01*
X0197320Y0093516D01*
X0197261Y0093529D01*
X0197202Y0093545D01*
X0197145Y0093565D01*
X0197090Y0093588D01*
X0197035Y0093615D01*
X0196983Y0093644D01*
X0196932Y0093677D01*
X0196883Y0093713D01*
X0196837Y0093751D01*
X0196793Y0093793D01*
X0196751Y0093837D01*
X0196713Y0093883D01*
X0196677Y0093932D01*
X0196644Y0093983D01*
X0196615Y0094035D01*
X0196588Y0094090D01*
X0196565Y0094145D01*
X0196545Y0094202D01*
X0196529Y0094261D01*
X0196516Y0094320D01*
X0196507Y0094379D01*
X0196502Y0094440D01*
X0196500Y0094500D01*
X0196500Y0096000D01*
X0197000Y0096500D01*
X0197000Y0115500D01*
X0196500Y0116000D01*
X0196500Y0117500D01*
X0196502Y0117560D01*
X0196507Y0117621D01*
X0196516Y0117680D01*
X0196529Y0117739D01*
X0196545Y0117798D01*
X0196565Y0117855D01*
X0196588Y0117910D01*
X0196615Y0117965D01*
X0196644Y0118017D01*
X0196677Y0118068D01*
X0196713Y0118117D01*
X0196751Y0118163D01*
X0196793Y0118207D01*
X0196837Y0118249D01*
X0196883Y0118287D01*
X0196932Y0118323D01*
X0196983Y0118356D01*
X0197035Y0118385D01*
X0197090Y0118412D01*
X0197145Y0118435D01*
X0197202Y0118455D01*
X0197261Y0118471D01*
X0197320Y0118484D01*
X0197379Y0118493D01*
X0197440Y0118498D01*
X0197500Y0118500D01*
X0283000Y0141000D02*
X0299000Y0141000D01*
X0299000Y0151000D01*
X0283000Y0151000D01*
X0283000Y0141000D01*
X0287000Y0143500D02*
X0291000Y0146000D01*
X0291000Y0148500D01*
X0291000Y0146000D02*
X0285000Y0146000D01*
X0287000Y0143500D02*
X0287000Y0148500D01*
X0291000Y0146000D01*
X0291000Y0143500D01*
X0291000Y0146000D02*
X0293500Y0146000D01*
X0299000Y0171000D02*
X0283000Y0171000D01*
X0283000Y0181000D01*
X0299000Y0181000D01*
X0299000Y0171000D01*
X0293500Y0176000D02*
X0291000Y0176000D01*
X0291000Y0178500D01*
X0291000Y0176000D02*
X0285000Y0176000D01*
X0287000Y0173500D02*
X0291000Y0176000D01*
X0291000Y0173500D01*
X0291000Y0176000D02*
X0287000Y0178500D01*
X0287000Y0173500D01*
X0332000Y0194500D02*
X0332000Y0219000D01*
X0335000Y0219000D01*
X0335000Y0225000D01*
X0335500Y0227500D01*
X0336500Y0227500D01*
X0337000Y0225000D01*
X0337000Y0219000D01*
X0339500Y0219000D01*
X0340000Y0219000D01*
X0340000Y0195500D01*
X0342000Y0195500D01*
X0342000Y0194500D01*
X0342000Y0195500D02*
X0342000Y0219000D01*
X0342500Y0219000D01*
X0345000Y0219000D01*
X0345000Y0225000D01*
X0345500Y0227500D01*
X0346500Y0227500D01*
X0347000Y0225000D01*
X0347000Y0219000D01*
X0350000Y0219000D01*
X0350000Y0194500D01*
X0340000Y0194500D02*
X0340000Y0195500D01*
X0348000Y0181000D02*
X0348000Y0171000D01*
X0364000Y0171000D01*
X0364000Y0181000D01*
X0348000Y0181000D01*
X0352000Y0178500D02*
X0356000Y0176000D01*
X0356000Y0178500D01*
X0356000Y0176000D02*
X0356000Y0173500D01*
X0356000Y0176000D02*
X0352000Y0173500D01*
X0352000Y0178500D01*
X0350000Y0176000D02*
X0356000Y0176000D01*
X0358500Y0176000D01*
X0364000Y0151000D02*
X0348000Y0151000D01*
X0348000Y0141000D01*
X0364000Y0141000D01*
X0364000Y0151000D01*
X0358500Y0146000D02*
X0356000Y0146000D01*
X0356000Y0148500D01*
X0356000Y0146000D02*
X0356000Y0143500D01*
X0356000Y0146000D02*
X0352000Y0143500D01*
X0352000Y0148500D01*
X0356000Y0146000D01*
X0350000Y0146000D01*
X0314125Y0098205D02*
X0309854Y0098205D01*
X0309854Y0095003D01*
X0311990Y0096070D01*
X0313057Y0096070D01*
X0314125Y0095003D01*
X0314125Y0092868D01*
X0313057Y0091800D01*
X0310922Y0091800D01*
X0309854Y0092868D01*
X0307679Y0091800D02*
X0303409Y0091800D01*
X0305544Y0091800D02*
X0305544Y0098205D01*
X0303409Y0096070D01*
X0301234Y0097138D02*
X0300166Y0098205D01*
X0298031Y0098205D01*
X0296963Y0097138D01*
X0296963Y0096070D01*
X0298031Y0095003D01*
X0300166Y0095003D01*
X0301234Y0093935D01*
X0301234Y0092868D01*
X0300166Y0091800D01*
X0298031Y0091800D01*
X0296963Y0092868D01*
X0336000Y0086500D02*
X0385000Y0086500D01*
X0385000Y0083000D01*
X0391000Y0083000D01*
X0391000Y0086500D01*
X0398500Y0086500D01*
X0398500Y0045500D01*
X0391000Y0045500D01*
X0391000Y0049000D01*
X0385000Y0049000D01*
X0385000Y0045500D01*
X0336000Y0045500D01*
X0336000Y0086500D01*
X0377900Y0066000D02*
X0377902Y0066174D01*
X0377909Y0066348D01*
X0377919Y0066522D01*
X0377934Y0066696D01*
X0377953Y0066869D01*
X0377977Y0067042D01*
X0378005Y0067214D01*
X0378036Y0067385D01*
X0378073Y0067556D01*
X0378113Y0067725D01*
X0378157Y0067894D01*
X0378206Y0068061D01*
X0378258Y0068227D01*
X0378315Y0068392D01*
X0378376Y0068555D01*
X0378440Y0068717D01*
X0378509Y0068877D01*
X0378582Y0069036D01*
X0378658Y0069192D01*
X0378738Y0069347D01*
X0378822Y0069500D01*
X0378910Y0069650D01*
X0379002Y0069798D01*
X0379097Y0069945D01*
X0379195Y0070088D01*
X0379297Y0070229D01*
X0379403Y0070368D01*
X0379512Y0070504D01*
X0379624Y0070638D01*
X0379739Y0070768D01*
X0379858Y0070896D01*
X0379980Y0071020D01*
X0380104Y0071142D01*
X0380232Y0071261D01*
X0380362Y0071376D01*
X0380496Y0071488D01*
X0380632Y0071597D01*
X0380771Y0071703D01*
X0380912Y0071805D01*
X0381055Y0071903D01*
X0381202Y0071998D01*
X0381350Y0072090D01*
X0381500Y0072178D01*
X0381653Y0072262D01*
X0381808Y0072342D01*
X0381964Y0072418D01*
X0382123Y0072491D01*
X0382283Y0072560D01*
X0382445Y0072624D01*
X0382608Y0072685D01*
X0382773Y0072742D01*
X0382939Y0072794D01*
X0383106Y0072843D01*
X0383275Y0072887D01*
X0383444Y0072927D01*
X0383615Y0072964D01*
X0383786Y0072995D01*
X0383958Y0073023D01*
X0384131Y0073047D01*
X0384304Y0073066D01*
X0384478Y0073081D01*
X0384652Y0073091D01*
X0384826Y0073098D01*
X0385000Y0073100D01*
X0385174Y0073098D01*
X0385348Y0073091D01*
X0385522Y0073081D01*
X0385696Y0073066D01*
X0385869Y0073047D01*
X0386042Y0073023D01*
X0386214Y0072995D01*
X0386385Y0072964D01*
X0386556Y0072927D01*
X0386725Y0072887D01*
X0386894Y0072843D01*
X0387061Y0072794D01*
X0387227Y0072742D01*
X0387392Y0072685D01*
X0387555Y0072624D01*
X0387717Y0072560D01*
X0387877Y0072491D01*
X0388036Y0072418D01*
X0388192Y0072342D01*
X0388347Y0072262D01*
X0388500Y0072178D01*
X0388650Y0072090D01*
X0388798Y0071998D01*
X0388945Y0071903D01*
X0389088Y0071805D01*
X0389229Y0071703D01*
X0389368Y0071597D01*
X0389504Y0071488D01*
X0389638Y0071376D01*
X0389768Y0071261D01*
X0389896Y0071142D01*
X0390020Y0071020D01*
X0390142Y0070896D01*
X0390261Y0070768D01*
X0390376Y0070638D01*
X0390488Y0070504D01*
X0390597Y0070368D01*
X0390703Y0070229D01*
X0390805Y0070088D01*
X0390903Y0069945D01*
X0390998Y0069798D01*
X0391090Y0069650D01*
X0391178Y0069500D01*
X0391262Y0069347D01*
X0391342Y0069192D01*
X0391418Y0069036D01*
X0391491Y0068877D01*
X0391560Y0068717D01*
X0391624Y0068555D01*
X0391685Y0068392D01*
X0391742Y0068227D01*
X0391794Y0068061D01*
X0391843Y0067894D01*
X0391887Y0067725D01*
X0391927Y0067556D01*
X0391964Y0067385D01*
X0391995Y0067214D01*
X0392023Y0067042D01*
X0392047Y0066869D01*
X0392066Y0066696D01*
X0392081Y0066522D01*
X0392091Y0066348D01*
X0392098Y0066174D01*
X0392100Y0066000D01*
X0392098Y0065826D01*
X0392091Y0065652D01*
X0392081Y0065478D01*
X0392066Y0065304D01*
X0392047Y0065131D01*
X0392023Y0064958D01*
X0391995Y0064786D01*
X0391964Y0064615D01*
X0391927Y0064444D01*
X0391887Y0064275D01*
X0391843Y0064106D01*
X0391794Y0063939D01*
X0391742Y0063773D01*
X0391685Y0063608D01*
X0391624Y0063445D01*
X0391560Y0063283D01*
X0391491Y0063123D01*
X0391418Y0062964D01*
X0391342Y0062808D01*
X0391262Y0062653D01*
X0391178Y0062500D01*
X0391090Y0062350D01*
X0390998Y0062202D01*
X0390903Y0062055D01*
X0390805Y0061912D01*
X0390703Y0061771D01*
X0390597Y0061632D01*
X0390488Y0061496D01*
X0390376Y0061362D01*
X0390261Y0061232D01*
X0390142Y0061104D01*
X0390020Y0060980D01*
X0389896Y0060858D01*
X0389768Y0060739D01*
X0389638Y0060624D01*
X0389504Y0060512D01*
X0389368Y0060403D01*
X0389229Y0060297D01*
X0389088Y0060195D01*
X0388945Y0060097D01*
X0388798Y0060002D01*
X0388650Y0059910D01*
X0388500Y0059822D01*
X0388347Y0059738D01*
X0388192Y0059658D01*
X0388036Y0059582D01*
X0387877Y0059509D01*
X0387717Y0059440D01*
X0387555Y0059376D01*
X0387392Y0059315D01*
X0387227Y0059258D01*
X0387061Y0059206D01*
X0386894Y0059157D01*
X0386725Y0059113D01*
X0386556Y0059073D01*
X0386385Y0059036D01*
X0386214Y0059005D01*
X0386042Y0058977D01*
X0385869Y0058953D01*
X0385696Y0058934D01*
X0385522Y0058919D01*
X0385348Y0058909D01*
X0385174Y0058902D01*
X0385000Y0058900D01*
X0384826Y0058902D01*
X0384652Y0058909D01*
X0384478Y0058919D01*
X0384304Y0058934D01*
X0384131Y0058953D01*
X0383958Y0058977D01*
X0383786Y0059005D01*
X0383615Y0059036D01*
X0383444Y0059073D01*
X0383275Y0059113D01*
X0383106Y0059157D01*
X0382939Y0059206D01*
X0382773Y0059258D01*
X0382608Y0059315D01*
X0382445Y0059376D01*
X0382283Y0059440D01*
X0382123Y0059509D01*
X0381964Y0059582D01*
X0381808Y0059658D01*
X0381653Y0059738D01*
X0381500Y0059822D01*
X0381350Y0059910D01*
X0381202Y0060002D01*
X0381055Y0060097D01*
X0380912Y0060195D01*
X0380771Y0060297D01*
X0380632Y0060403D01*
X0380496Y0060512D01*
X0380362Y0060624D01*
X0380232Y0060739D01*
X0380104Y0060858D01*
X0379980Y0060980D01*
X0379858Y0061104D01*
X0379739Y0061232D01*
X0379624Y0061362D01*
X0379512Y0061496D01*
X0379403Y0061632D01*
X0379297Y0061771D01*
X0379195Y0061912D01*
X0379097Y0062055D01*
X0379002Y0062202D01*
X0378910Y0062350D01*
X0378822Y0062500D01*
X0378738Y0062653D01*
X0378658Y0062808D01*
X0378582Y0062964D01*
X0378509Y0063123D01*
X0378440Y0063283D01*
X0378376Y0063445D01*
X0378315Y0063608D01*
X0378258Y0063773D01*
X0378206Y0063939D01*
X0378157Y0064106D01*
X0378113Y0064275D01*
X0378073Y0064444D01*
X0378036Y0064615D01*
X0378005Y0064786D01*
X0377977Y0064958D01*
X0377953Y0065131D01*
X0377934Y0065304D01*
X0377919Y0065478D01*
X0377909Y0065652D01*
X0377902Y0065826D01*
X0377900Y0066000D01*
X0273500Y0029500D02*
X0273500Y0022500D01*
X0273498Y0022440D01*
X0273493Y0022379D01*
X0273484Y0022320D01*
X0273471Y0022261D01*
X0273455Y0022202D01*
X0273435Y0022145D01*
X0273412Y0022090D01*
X0273385Y0022035D01*
X0273356Y0021983D01*
X0273323Y0021932D01*
X0273287Y0021883D01*
X0273249Y0021837D01*
X0273207Y0021793D01*
X0273163Y0021751D01*
X0273117Y0021713D01*
X0273068Y0021677D01*
X0273017Y0021644D01*
X0272965Y0021615D01*
X0272910Y0021588D01*
X0272855Y0021565D01*
X0272798Y0021545D01*
X0272739Y0021529D01*
X0272680Y0021516D01*
X0272621Y0021507D01*
X0272560Y0021502D01*
X0272500Y0021500D01*
X0271000Y0021500D01*
X0270500Y0022000D01*
X0251500Y0022000D01*
X0251000Y0021500D01*
X0249500Y0021500D01*
X0249440Y0021502D01*
X0249379Y0021507D01*
X0249320Y0021516D01*
X0249261Y0021529D01*
X0249202Y0021545D01*
X0249145Y0021565D01*
X0249090Y0021588D01*
X0249035Y0021615D01*
X0248983Y0021644D01*
X0248932Y0021677D01*
X0248883Y0021713D01*
X0248837Y0021751D01*
X0248793Y0021793D01*
X0248751Y0021837D01*
X0248713Y0021883D01*
X0248677Y0021932D01*
X0248644Y0021983D01*
X0248615Y0022035D01*
X0248588Y0022090D01*
X0248565Y0022145D01*
X0248545Y0022202D01*
X0248529Y0022261D01*
X0248516Y0022320D01*
X0248507Y0022379D01*
X0248502Y0022440D01*
X0248500Y0022500D01*
X0248500Y0029500D01*
X0248502Y0029560D01*
X0248507Y0029621D01*
X0248516Y0029680D01*
X0248529Y0029739D01*
X0248545Y0029798D01*
X0248565Y0029855D01*
X0248588Y0029910D01*
X0248615Y0029965D01*
X0248644Y0030017D01*
X0248677Y0030068D01*
X0248713Y0030117D01*
X0248751Y0030163D01*
X0248793Y0030207D01*
X0248837Y0030249D01*
X0248883Y0030287D01*
X0248932Y0030323D01*
X0248983Y0030356D01*
X0249035Y0030385D01*
X0249090Y0030412D01*
X0249145Y0030435D01*
X0249202Y0030455D01*
X0249261Y0030471D01*
X0249320Y0030484D01*
X0249379Y0030493D01*
X0249440Y0030498D01*
X0249500Y0030500D01*
X0251000Y0030500D01*
X0251500Y0030000D01*
X0270500Y0030000D01*
X0271000Y0030500D01*
X0272500Y0030500D01*
X0272560Y0030498D01*
X0272621Y0030493D01*
X0272680Y0030484D01*
X0272739Y0030471D01*
X0272798Y0030455D01*
X0272855Y0030435D01*
X0272910Y0030412D01*
X0272965Y0030385D01*
X0273017Y0030356D01*
X0273068Y0030323D01*
X0273117Y0030287D01*
X0273163Y0030249D01*
X0273207Y0030207D01*
X0273249Y0030163D01*
X0273287Y0030117D01*
X0273323Y0030068D01*
X0273356Y0030017D01*
X0273385Y0029965D01*
X0273412Y0029910D01*
X0273435Y0029855D01*
X0273455Y0029798D01*
X0273471Y0029739D01*
X0273484Y0029680D01*
X0273493Y0029621D01*
X0273498Y0029560D01*
X0273500Y0029500D01*
X0232513Y0050882D02*
X0232388Y0050791D01*
X0232266Y0050697D01*
X0232147Y0050599D01*
X0232030Y0050499D01*
X0231916Y0050395D01*
X0231804Y0050289D01*
X0231696Y0050180D01*
X0231590Y0050068D01*
X0231487Y0049953D01*
X0231387Y0049836D01*
X0231289Y0049716D01*
X0231196Y0049594D01*
X0231105Y0049470D01*
X0231017Y0049343D01*
X0230933Y0049214D01*
X0230852Y0049082D01*
X0230775Y0048949D01*
X0230701Y0048814D01*
X0230630Y0048677D01*
X0230563Y0048538D01*
X0230500Y0048398D01*
X0230440Y0048255D01*
X0230384Y0048112D01*
X0230332Y0047967D01*
X0230283Y0047821D01*
X0230238Y0047673D01*
X0230197Y0047525D01*
X0230160Y0047375D01*
X0230126Y0047225D01*
X0230097Y0047073D01*
X0230071Y0046921D01*
X0230049Y0046769D01*
X0230032Y0046616D01*
X0230018Y0046462D01*
X0230008Y0046308D01*
X0230002Y0046154D01*
X0230000Y0046000D01*
X0239683Y0041264D02*
X0239802Y0041358D01*
X0239918Y0041456D01*
X0240032Y0041556D01*
X0240143Y0041660D01*
X0240251Y0041766D01*
X0240357Y0041874D01*
X0240459Y0041986D01*
X0240559Y0042100D01*
X0240657Y0042216D01*
X0240751Y0042335D01*
X0240842Y0042456D01*
X0240930Y0042580D01*
X0241015Y0042706D01*
X0241096Y0042833D01*
X0241175Y0042963D01*
X0241250Y0043095D01*
X0241321Y0043228D01*
X0241390Y0043364D01*
X0241455Y0043501D01*
X0241516Y0043639D01*
X0241574Y0043780D01*
X0241628Y0043921D01*
X0241679Y0044064D01*
X0241726Y0044208D01*
X0241770Y0044353D01*
X0241809Y0044500D01*
X0241845Y0044647D01*
X0241878Y0044795D01*
X0241906Y0044944D01*
X0241931Y0045094D01*
X0241952Y0045244D01*
X0241969Y0045394D01*
X0241983Y0045546D01*
X0241992Y0045697D01*
X0241998Y0045848D01*
X0242000Y0046000D01*
X0232400Y0041200D02*
X0232281Y0041292D01*
X0232164Y0041386D01*
X0232050Y0041484D01*
X0231938Y0041584D01*
X0231828Y0041688D01*
X0231722Y0041793D01*
X0231617Y0041902D01*
X0231516Y0042013D01*
X0231418Y0042127D01*
X0231322Y0042243D01*
X0231229Y0042361D01*
X0231140Y0042482D01*
X0231053Y0042605D01*
X0230970Y0042730D01*
X0230889Y0042857D01*
X0230812Y0042986D01*
X0230738Y0043117D01*
X0230667Y0043250D01*
X0230600Y0043384D01*
X0230536Y0043520D01*
X0230476Y0043658D01*
X0230419Y0043797D01*
X0230366Y0043938D01*
X0230316Y0044080D01*
X0230269Y0044223D01*
X0230227Y0044367D01*
X0230187Y0044512D01*
X0230152Y0044658D01*
X0230120Y0044805D01*
X0230092Y0044953D01*
X0230068Y0045101D01*
X0230047Y0045250D01*
X0230030Y0045400D01*
X0230017Y0045549D01*
X0230008Y0045699D01*
X0230002Y0045850D01*
X0230000Y0046000D01*
X0239683Y0050736D02*
X0239802Y0050642D01*
X0239918Y0050544D01*
X0240032Y0050444D01*
X0240143Y0050340D01*
X0240251Y0050234D01*
X0240357Y0050126D01*
X0240459Y0050014D01*
X0240559Y0049900D01*
X0240657Y0049784D01*
X0240751Y0049665D01*
X0240842Y0049544D01*
X0240930Y0049420D01*
X0241015Y0049294D01*
X0241096Y0049167D01*
X0241175Y0049037D01*
X0241250Y0048905D01*
X0241321Y0048772D01*
X0241390Y0048636D01*
X0241455Y0048499D01*
X0241516Y0048361D01*
X0241574Y0048220D01*
X0241628Y0048079D01*
X0241679Y0047936D01*
X0241726Y0047792D01*
X0241770Y0047647D01*
X0241809Y0047500D01*
X0241845Y0047353D01*
X0241878Y0047205D01*
X0241906Y0047056D01*
X0241931Y0046906D01*
X0241952Y0046756D01*
X0241969Y0046606D01*
X0241983Y0046454D01*
X0241992Y0046303D01*
X0241998Y0046152D01*
X0242000Y0046000D01*
X0332000Y0219000D02*
X0332000Y0229500D01*
X0339500Y0229500D01*
X0339500Y0219000D01*
X0340000Y0219000D02*
X0341000Y0219000D01*
X0342000Y0219000D01*
X0342500Y0219000D02*
X0342500Y0229500D01*
X0350000Y0229500D01*
X0350000Y0230500D01*
X0332000Y0230500D01*
X0332000Y0229500D01*
X0339500Y0229500D02*
X0341000Y0228000D01*
X0341000Y0219000D01*
X0337000Y0219000D02*
X0335000Y0219000D01*
X0335000Y0225000D02*
X0337000Y0225000D01*
X0341000Y0228000D02*
X0342500Y0229500D01*
X0345000Y0225000D02*
X0347000Y0225000D01*
X0350000Y0229500D02*
X0350000Y0219000D01*
X0347000Y0219000D02*
X0345000Y0219000D01*
D14*
X0361500Y0176000D03*
X0361500Y0146000D03*
X0296500Y0146000D03*
X0296500Y0176000D03*
D15*
X0302750Y0176000D03*
X0279250Y0176000D03*
X0279250Y0146000D03*
X0302750Y0146000D03*
X0344250Y0146000D03*
X0367750Y0146000D03*
X0367750Y0176000D03*
X0344250Y0176000D03*
D16*
X0338500Y0084000D02*
X0371000Y0084000D01*
X0371000Y0048000D01*
X0338500Y0048000D01*
X0338500Y0084000D01*
D17*
X0338296Y0087850D02*
X0334092Y0087850D01*
X0338296Y0092054D01*
X0338296Y0093104D01*
X0337245Y0094155D01*
X0335143Y0094155D01*
X0334092Y0093104D01*
X0331851Y0093104D02*
X0330800Y0094155D01*
X0328698Y0094155D01*
X0327647Y0093104D01*
X0327647Y0088901D01*
X0328698Y0087850D01*
X0330800Y0087850D01*
X0331851Y0088901D01*
X0325452Y0087850D02*
X0323350Y0087850D01*
X0324401Y0087850D02*
X0324401Y0094155D01*
X0323350Y0094155D02*
X0325452Y0094155D01*
X0134108Y0064104D02*
X0134108Y0063054D01*
X0133057Y0062003D01*
X0130955Y0062003D01*
X0129904Y0063054D01*
X0129904Y0064104D01*
X0130955Y0065155D01*
X0133057Y0065155D01*
X0134108Y0064104D01*
X0133057Y0062003D02*
X0134108Y0060952D01*
X0134108Y0059901D01*
X0133057Y0058850D01*
X0130955Y0058850D01*
X0129904Y0059901D01*
X0129904Y0060952D01*
X0130955Y0062003D01*
X0127663Y0064104D02*
X0126612Y0065155D01*
X0124510Y0065155D01*
X0123459Y0064104D01*
X0123459Y0059901D01*
X0124510Y0058850D01*
X0126612Y0058850D01*
X0127663Y0059901D01*
X0121264Y0058850D02*
X0119162Y0058850D01*
X0120213Y0058850D02*
X0120213Y0065155D01*
X0119162Y0065155D02*
X0121264Y0065155D01*
D18*
X0323750Y0066000D03*
X0323750Y0056000D03*
X0323750Y0076000D03*
D19*
X0330500Y0076000D03*
X0330500Y0066000D03*
X0330500Y0056000D03*
D20*
X0232235Y0038941D02*
X0232067Y0039034D01*
X0231901Y0039130D01*
X0231737Y0039230D01*
X0231576Y0039335D01*
X0231417Y0039443D01*
X0231261Y0039555D01*
X0231107Y0039671D01*
X0230957Y0039790D01*
X0230809Y0039913D01*
X0230664Y0040039D01*
X0230523Y0040169D01*
X0230384Y0040302D01*
X0230249Y0040439D01*
X0230117Y0040579D01*
X0229989Y0040721D01*
X0229864Y0040867D01*
X0229742Y0041016D01*
X0229624Y0041168D01*
X0229510Y0041322D01*
X0229400Y0041480D01*
X0229293Y0041639D01*
X0229190Y0041802D01*
X0229091Y0041967D01*
X0228996Y0042134D01*
X0228906Y0042303D01*
X0228819Y0042474D01*
X0228736Y0042648D01*
X0228658Y0042823D01*
X0228584Y0043001D01*
X0228514Y0043180D01*
X0228448Y0043360D01*
X0228387Y0043542D01*
X0228330Y0043726D01*
X0228278Y0043911D01*
X0228230Y0044097D01*
X0228186Y0044284D01*
X0228147Y0044472D01*
X0228113Y0044661D01*
X0228083Y0044851D01*
X0228058Y0045041D01*
X0228037Y0045232D01*
X0228021Y0045424D01*
X0228009Y0045616D01*
X0228002Y0045808D01*
X0228000Y0046000D01*
X0239969Y0039054D02*
X0240138Y0039153D01*
X0240304Y0039257D01*
X0240468Y0039364D01*
X0240629Y0039475D01*
X0240787Y0039590D01*
X0240942Y0039709D01*
X0241095Y0039832D01*
X0241244Y0039958D01*
X0241390Y0040088D01*
X0241533Y0040222D01*
X0241673Y0040359D01*
X0241809Y0040499D01*
X0241942Y0040643D01*
X0242071Y0040790D01*
X0242197Y0040940D01*
X0242318Y0041093D01*
X0242437Y0041249D01*
X0242551Y0041408D01*
X0242661Y0041569D01*
X0242767Y0041734D01*
X0242870Y0041900D01*
X0242968Y0042070D01*
X0243062Y0042241D01*
X0243152Y0042415D01*
X0243237Y0042591D01*
X0243319Y0042769D01*
X0243395Y0042949D01*
X0243468Y0043131D01*
X0243536Y0043314D01*
X0243599Y0043499D01*
X0243658Y0043686D01*
X0243712Y0043874D01*
X0243762Y0044063D01*
X0243807Y0044253D01*
X0243847Y0044445D01*
X0243883Y0044637D01*
X0243914Y0044830D01*
X0243940Y0045024D01*
X0243962Y0045219D01*
X0243978Y0045414D01*
X0243990Y0045609D01*
X0243998Y0045805D01*
X0244000Y0046000D01*
X0243998Y0046193D01*
X0243991Y0046386D01*
X0243979Y0046578D01*
X0243963Y0046771D01*
X0243942Y0046963D01*
X0243916Y0047154D01*
X0243886Y0047344D01*
X0243851Y0047534D01*
X0243812Y0047723D01*
X0243768Y0047911D01*
X0243720Y0048098D01*
X0243667Y0048284D01*
X0243610Y0048468D01*
X0243548Y0048651D01*
X0243482Y0048832D01*
X0243411Y0049012D01*
X0243337Y0049190D01*
X0243258Y0049366D01*
X0243174Y0049540D01*
X0243087Y0049712D01*
X0242995Y0049882D01*
X0242899Y0050049D01*
X0242800Y0050215D01*
X0242696Y0050378D01*
X0242589Y0050538D01*
X0242477Y0050695D01*
X0242362Y0050850D01*
X0242243Y0051002D01*
X0242121Y0051151D01*
X0241995Y0051298D01*
X0241865Y0051441D01*
X0241732Y0051581D01*
X0241596Y0051717D01*
X0241456Y0051851D01*
X0241314Y0051980D01*
X0241168Y0052107D01*
X0230878Y0052146D02*
X0230730Y0052019D01*
X0230585Y0051889D01*
X0230444Y0051756D01*
X0230305Y0051619D01*
X0230170Y0051479D01*
X0230039Y0051335D01*
X0229911Y0051188D01*
X0229786Y0051039D01*
X0229665Y0050886D01*
X0229548Y0050731D01*
X0229435Y0050572D01*
X0229326Y0050411D01*
X0229221Y0050247D01*
X0229119Y0050081D01*
X0229022Y0049912D01*
X0228929Y0049742D01*
X0228840Y0049568D01*
X0228755Y0049393D01*
X0228675Y0049216D01*
X0228599Y0049037D01*
X0228527Y0048856D01*
X0228460Y0048673D01*
X0228397Y0048489D01*
X0228339Y0048303D01*
X0228285Y0048116D01*
X0228236Y0047928D01*
X0228191Y0047738D01*
X0228151Y0047548D01*
X0228116Y0047356D01*
X0228085Y0047164D01*
X0228059Y0046971D01*
X0228038Y0046777D01*
X0228021Y0046583D01*
X0228009Y0046389D01*
X0228002Y0046195D01*
X0228000Y0046000D01*
D21*
X0243500Y0026000D02*
X0245000Y0026000D01*
X0277000Y0026000D02*
X0278500Y0026000D01*
X0201000Y0088500D02*
X0201000Y0090000D01*
X0201000Y0122000D02*
X0201000Y0123500D01*
D22*
X0241800Y0026000D03*
X0246800Y0026000D03*
X0275200Y0026000D03*
X0280200Y0026000D03*
D23*
X0201000Y0086800D03*
X0201000Y0091800D03*
X0201000Y0120200D03*
X0201000Y0125200D03*
D24*
X0336000Y0222000D03*
X0346000Y0222000D03*
D25*
X0346000Y0226250D03*
X0336000Y0226250D03*
D26*
X0336750Y0225500D03*
X0335250Y0225500D03*
X0345250Y0225500D03*
X0346750Y0225500D03*
D27*
X0066000Y0089500D03*
X0041000Y0114500D03*
X0040823Y0138083D03*
X0066000Y0064500D03*
X0066000Y0039500D03*
X0126000Y0039500D03*
D28*
X0108750Y0037000D03*
X0083250Y0037000D03*
X0048750Y0037000D03*
X0048750Y0062000D03*
X0083250Y0062000D03*
X0083250Y0087000D03*
X0048750Y0087000D03*
X0058250Y0112000D03*
X0023750Y0112000D03*
X0023573Y0135583D03*
X0058073Y0135583D03*
X0143250Y0037000D03*
D29*
X0131000Y0037000D03*
X0121000Y0037000D03*
X0071000Y0037000D03*
X0061000Y0037000D03*
X0061000Y0062000D03*
X0071000Y0062000D03*
X0071000Y0087000D03*
X0061000Y0087000D03*
X0046000Y0112000D03*
X0036000Y0112000D03*
X0035823Y0135583D03*
X0045823Y0135583D03*
D30*
X0057000Y0161000D03*
X0057000Y0171000D03*
X0057000Y0181000D03*
X0057000Y0191000D03*
X0057000Y0201000D03*
X0057000Y0211000D03*
D31*
X0061250Y0211000D03*
X0061250Y0201000D03*
X0061250Y0191000D03*
X0061250Y0181000D03*
X0061250Y0171000D03*
X0061250Y0161000D03*
D32*
X0060500Y0161750D03*
X0060500Y0160250D03*
X0060500Y0170250D03*
X0060500Y0171750D03*
X0060500Y0180250D03*
X0060500Y0181750D03*
X0060500Y0190250D03*
X0060500Y0191750D03*
X0060500Y0200250D03*
X0060500Y0201750D03*
X0060500Y0210250D03*
X0060500Y0211750D03*
M02*
